<?xml version="1.0" standalone="no"?>
<!DOCTYPE svg PUBLIC "-//W3C//DTD SVG 1.1//EN" "http://www.w3.org/Graphics/SVG/1.1/DTD/svg11.dtd" >
<svg>
<metadata>
Created by FontForge 20090622 at Fri Dec 18 15:25:56 2015
 By deploy user
Copyright (c) Mark Simonson, 2005. All rights reserved.
</metadata>
<defs>
<font id="ProximaNovaAExCn-BlackIt" horiz-adv-x="462" >
  <font-face 
    font-family="Proxima Nova Alt ExCn Bl"
    font-weight="900"
    font-style="italic"
    font-stretch="normal"
    units-per-em="1000"
    panose-1="2 0 5 6 3 0 0 2 0 4"
    ascent="790"
    descent="-210"
    x-height="483"
    cap-height="667"
    bbox="-151 -199 865 883"
    underline-thickness="20"
    underline-position="-113"
    unicode-range="U+000D-U+FB02"
  />
<missing-glyph horiz-adv-x="434" 
d="M412 -90h-351v842h351v-842zM380 -60v782h-288v-782h288z" />
    <glyph glyph-name="fi" unicode="fi" horiz-adv-x="503" 
d="M156 0h-157l76 346h-42l31 137h41l4 19q20 90 62 132.5t111 42.5q51 0 92 -17l-48 -121q-6 5 -17 5q-35 0 -43 -42l-4 -19h57l-31 -137h-56zM460 525q-35 0 -58.5 22.5t-23.5 54.5q0 47 32.5 75.5t70.5 28.5q35 0 58 -22.5t23 -54.5q0 -47 -32 -75.5t-70 -28.5zM414 0
h-158l107 483h158z" />
    <glyph glyph-name="fl" unicode="fl" horiz-adv-x="533" 
d="M156 0h-157l76 346h-42l31 137h41l4 19q20 90 62 132.5t111 42.5q51 0 92 -17l-48 -121q-6 5 -17 5q-35 0 -43 -42l-4 -19h57l-31 -137h-56zM421 -12q-141 0 -141 100q0 26 6 51l117 528h158l-110 -497q-2 -10 -2 -20q1 -23 23 -23q10 0 18 6l-5 -133q-19 -12 -64 -12z
" />
    <glyph glyph-name=".notdef" horiz-adv-x="434" 
d="M412 -90h-351v842h351v-842zM380 -60v782h-288v-782h288z" />
    <glyph glyph-name=".null" horiz-adv-x="0" 
 />
    <glyph glyph-name="nonmarkingreturn" horiz-adv-x="333" 
 />
    <glyph glyph-name="NUL" horiz-adv-x="0" 
 />
    <glyph glyph-name="NUL" horiz-adv-x="0" 
 />
    <glyph glyph-name="CR" unicode="&#xd;" horiz-adv-x="0" 
 />
    <glyph glyph-name="space" unicode=" " horiz-adv-x="150" 
 />
    <glyph glyph-name="exclam" unicode="!" horiz-adv-x="271" 
d="M203 235h-141l72 432h189zM89 -12q-37 0 -62 25.5t-25 61.5q0 43 31 74t73 31q37 0 62 -26t25 -63q0 -42 -31 -72.5t-73 -30.5z" />
    <glyph glyph-name="quotedbl" unicode="&#x22;" horiz-adv-x="442" 
d="M177 355h-66q2 207 2 227q1 40 28.5 67.5t66.5 27.5q30 0 51 -21t21 -53q0 -18 -8 -34zM379 355h-65q2 207 2 227q0 40 28 67.5t67 27.5q29 0 50.5 -21t21.5 -53q0 -18 -8 -34z" />
    <glyph glyph-name="numbersign" unicode="#" horiz-adv-x="487" 
d="M251 0h-113l75 163h-55l-73 -163h-113l74 163h-50l44 97h51l66 146h-52l42 96h53l74 165h113l-74 -165h54l73 165h113l-74 -165h51l-42 -96h-53l-66 -146h55l-45 -97h-55zM257 260l65 146h-54l-64 -146h53z" />
    <glyph glyph-name="dollar" unicode="$" horiz-adv-x="435" 
d="M89 -100l21 95q-92 19 -138 77l97 130q19 -26 49 -42t60 -16q22 0 36 14t14 36q0 20 -25.5 44.5t-56 47t-56 63.5t-25.5 91q0 87 55 153.5t141 80.5l21 94h114l-23 -99q69 -17 113 -64l-91 -131q-37 48 -95 48q-23 0 -35 -13.5t-12 -32.5q0 -18 16.5 -37t40 -38t47 -41.5
t40 -56.5t16.5 -74q0 -87 -52 -154.5t-138 -82.5l-20 -92h-114z" />
    <glyph glyph-name="percent" unicode="%" horiz-adv-x="604" 
d="M136 0h-60l431 667h61zM414 -12q-57 0 -90 36t-33 92q0 86 48.5 146.5t113.5 60.5q56 0 89.5 -36.5t33.5 -92.5q0 -86 -48.5 -146t-113.5 -60zM422 82q18 0 36.5 32t18.5 71q0 43 -32 43q-19 0 -37 -31.5t-18 -70.5q0 -44 32 -44zM189 343q-56 0 -89.5 36t-33.5 92
q0 86 48.5 146t114.5 60q56 0 89.5 -36t33.5 -92q0 -86 -48.5 -146t-114.5 -60zM197 437q19 0 37 31.5t18 70.5q0 44 -31 44q-19 0 -37 -31.5t-18 -71.5q0 -43 31 -43z" />
    <glyph glyph-name="ampersand" unicode="&#x26;" horiz-adv-x="495" 
d="M444 0h-154q-6 12 -9 19q-57 -31 -119 -31q-75 0 -120.5 43t-45.5 120q0 87 42.5 139.5t116.5 93.5q-11 52 -11 90q0 86 54.5 144.5t130.5 58.5q65 0 104 -38t39 -105q0 -37 -13 -67t-41 -54.5t-50 -39t-62 -35.5l14 -41l18 -49q18 32 47 93l109 -68q-48 -95 -102 -159z
M203 110q17 0 34 11q-20 50 -28 75q-1 4 -9 27l-12 35q-33 -35 -33 -80q0 -27 13 -47.5t35 -20.5zM278 475q0 -17 1 -26q59 37 59 82q0 35 -21 35q-15 0 -27 -27.5t-12 -63.5z" />
    <glyph glyph-name="quotesingle" unicode="'" horiz-adv-x="241" 
d="M177 355h-66q2 207 2 227q1 40 28.5 67.5t66.5 27.5q30 0 51 -21t21 -53q0 -18 -8 -34z" />
    <glyph glyph-name="parenleft" unicode="(" horiz-adv-x="306" 
d="M198 -157l-127 -42q-45 119 -45 262q0 341 240 622l105 -64q-85 -140 -134 -306.5t-49 -324.5q0 -75 10 -147z" />
    <glyph glyph-name="parenright" unicode=")" horiz-adv-x="306" 
d="M109 643l126 42q46 -122 46 -262q0 -340 -241 -622l-105 64q85 140 134 307t49 324q0 82 -9 147z" />
    <glyph glyph-name="asterisk" unicode="*" horiz-adv-x="338" 
d="M230 353h-74l28 111l-103 -46l-21 66l105 38l-84 58l51 58l76 -65l19 104h75l-31 -111l103 47l22 -67l-103 -38l82 -58l-51 -58l-77 65z" />
    <glyph glyph-name="plus" unicode="+" horiz-adv-x="388" 
d="M369 291h-113l-31 -138h-104l31 138h-113l21 93h113l29 130h103l-29 -130h113z" />
    <glyph glyph-name="comma" unicode="," horiz-adv-x="273" 
d="M200 85q0 -63 -46 -125t-118 -97l-54 56q81 35 106 84q-3 -1 -12 -1q-31 0 -52 20t-21 57q0 41 32.5 71t73.5 30q38 0 64.5 -25t26.5 -70z" />
    <glyph glyph-name="hyphen" unicode="-" horiz-adv-x="247" 
d="M202 176h-187l29 132h187z" />
    <glyph glyph-name="period" unicode="." horiz-adv-x="270" 
d="M90 -12q-36 0 -61.5 25.5t-25.5 61.5q0 43 31.5 74t73.5 31q37 0 62 -26t25 -63q0 -42 -31 -72.5t-74 -30.5z" />
    <glyph glyph-name="slash" unicode="/" horiz-adv-x="254" 
d="M50 -20h-110l303 707h111z" />
    <glyph glyph-name="zero" unicode="0" horiz-adv-x="495" 
d="M214 -12q-86 0 -138.5 63.5t-52.5 176.5t38.5 216t108 168t150.5 65q86 0 138 -63t52 -176t-38.5 -216t-107.5 -168.5t-150 -65.5zM230 144q30 0 56.5 68.5t39 142t12.5 113.5q0 53 -35 53q-30 0 -56.5 -68t-39 -141.5t-12.5 -113.5q0 -54 35 -54z" />
    <glyph glyph-name="one" unicode="1" horiz-adv-x="405" 
d="M310 0h-177l98 442l-105 -87l-76 104l255 208h152z" />
    <glyph glyph-name="two" unicode="2" horiz-adv-x="491" 
d="M414 0h-437l40 175l63 47.5l58 43.5l49.5 38l45 35.5l36 30.5t29.5 28.5t20 25t14 24.5t4 22q0 51 -60 51q-64 0 -114 -53l-82 117q90 92 215 92q100 0 162 -49t62 -137q0 -31 -7 -58.5t-26 -56t-36.5 -50t-55.5 -54.5l-64 -54l-81 -64h199z" />
    <glyph glyph-name="three" unicode="3" horiz-adv-x="490" 
d="M222 -12q-82 0 -151.5 36.5t-92.5 98.5l138 92q14 -33 42.5 -52t63.5 -19t52.5 21.5t17.5 48.5q0 22 -18.5 33.5t-45.5 11.5q-31 0 -43 -1l35 157q7 -1 57 -1q33 0 50 18t17 44q0 45 -72 45q-55 0 -92 -40l-89 106q93 90 211 90q98 0 159.5 -42.5t61.5 -119.5
q0 -71 -48.5 -119.5t-109.5 -57.5q50 -16 74 -53t24 -80q0 -92 -70 -154.5t-171 -62.5z" />
    <glyph glyph-name="four" unicode="4" horiz-adv-x="495" 
d="M377 0h-177l26 120h-237l38 169l284 378h213l-87 -393h47l-34 -154h-47zM260 274l43 193l-138 -193h95z" />
    <glyph glyph-name="five" unicode="5" horiz-adv-x="498" 
d="M221 -12q-88 0 -148.5 35t-88.5 99l133 93q15 -33 43 -52t58 -19q35 0 57.5 27t22.5 65q0 25 -15 40.5t-43 15.5q-43 0 -75 -40l-121 41l83 374h409l-34 -154h-232l-27 -122q36 43 100 43t102.5 -45t38.5 -126q0 -113 -72.5 -194t-190.5 -81z" />
    <glyph glyph-name="six" unicode="6" horiz-adv-x="491" 
d="M231 -12q-100 0 -155.5 62t-55.5 179q0 57 12.5 117.5t39 120t64.5 106t93.5 75.5t120.5 29q117 0 177 -78l-112 -121q-20 43 -74 43q-36 0 -68 -34.5t-49 -86.5q-4 -10 -8 -31q22 33 55.5 51t68.5 18q60 0 99 -43.5t39 -115.5q0 -115 -69 -203t-178 -88zM232 144
q28 0 45.5 33t17.5 65q0 24 -11.5 39.5t-32.5 15.5q-31 0 -56 -42q-5 -18 -5 -48q0 -63 42 -63z" />
    <glyph glyph-name="seven" unicode="7" horiz-adv-x="451" 
d="M205 0h-194l285 513h-223l34 154h423l-27 -122z" />
    <glyph glyph-name="eight" unicode="8" horiz-adv-x="491" 
d="M225 -12q-114 0 -172 39.5t-58 125.5q0 64 42 122t121 81q-35 16 -57.5 50t-22.5 77q0 87 69.5 140.5t160.5 53.5q57 0 104 -14.5t81 -52.5t34 -95q0 -66 -43 -118t-110 -64q88 -44 88 -141q0 -89 -65 -146.5t-172 -57.5zM279 397q67 25 67 84q0 40 -41 40
q-27 0 -43 -20.5t-16 -50.5q0 -29 33 -53zM224 144q27 0 46 23.5t19 59.5q0 23 -12 37.5t-24 18.5q-30 -7 -52.5 -30.5t-22.5 -62.5q0 -46 46 -46z" />
    <glyph glyph-name="nine" unicode="9" horiz-adv-x="491" 
d="M300 678q99 0 154.5 -62t55.5 -179q0 -57 -12.5 -117.5t-39 -120t-64.5 -106t-93.5 -75.5t-120.5 -29q-117 0 -177 78l112 121q20 -43 74 -43q36 0 68 34.5t49 87.5q4 9 8 30q-22 -33 -55.5 -51t-68.5 -18q-60 0 -99 43.5t-39 115.5q0 115 69 203t179 88zM298 522
q-27 0 -44.5 -32.5t-17.5 -65.5q0 -24 11 -39.5t32 -15.5q31 0 56 43q5 17 5 47q0 63 -42 63z" />
    <glyph glyph-name="colon" unicode=":" horiz-adv-x="268" 
d="M91 -12q-36 0 -61.5 25.5t-25.5 61.5q0 43 31 74t74 31q36 0 61.5 -26t25.5 -63q0 -42 -31 -72.5t-74 -30.5zM159 298q-36 0 -61.5 25.5t-25.5 61.5q0 43 31 74t74 31q36 0 61.5 -26t25.5 -63q0 -42 -31 -72.5t-74 -30.5z" />
    <glyph glyph-name="semicolon" unicode=";" horiz-adv-x="271" 
d="M200 85q0 -63 -46 -125t-118 -97l-54 56q81 35 106 84q-3 -1 -12 -1q-31 0 -52 20t-21 57q0 41 32.5 71t73.5 30q38 0 64.5 -25t26.5 -70zM159 298q-36 0 -61.5 25.5t-25.5 61.5q0 43 31 74t74 31q36 0 61.5 -26t25.5 -63q0 -42 -31 -72.5t-74 -30.5z" />
    <glyph glyph-name="less" unicode="&#x3c;" horiz-adv-x="388" 
d="M337 150l-301 128l25 114l358 128l-25 -116l-240 -75l207 -72z" />
    <glyph glyph-name="equal" unicode="=" horiz-adv-x="388" 
d="M388 380h-329l20 94h330zM348 195h-330l21 93h329z" />
    <glyph glyph-name="greater" unicode="&#x3e;" horiz-adv-x="388" 
d="M365 278l-357 -128l26 116l239 73l-207 74l23 107l302 -128z" />
    <glyph glyph-name="question" unicode="?" horiz-adv-x="338" 
d="M238 259l-142 -43q-8 24 -8 59q0 39 13 71t31 53t36.5 38t31.5 33.5t13 32.5q0 27 -28 27q-27 0 -46 -20l-47 112q68 55 152 55q65 0 109 -35t44 -91q0 -38 -17 -71.5t-41 -58t-48 -46t-41 -44.5t-17 -45q0 -15 5 -27zM126 -12q-36 0 -61.5 25.5t-25.5 61.5q0 43 31 74
t74 31q36 0 61.5 -26t25.5 -63q0 -42 -31 -72.5t-74 -30.5z" />
    <glyph glyph-name="at" unicode="@" horiz-adv-x="670" 
d="M299 -70q-120 0 -182 75.5t-62 208.5q0 109 49 206.5t135 157.5t185 60q102 0 166.5 -65t64.5 -173q0 -126 -53.5 -220.5t-132.5 -94.5q-36 0 -62.5 17t-33.5 47l-2 10q-50 -74 -119 -74q-42 0 -70 31t-28 102q0 107 56 193t141 86q56 0 73 -58l10 46h138l-48 -229
q-3 -15 -3 -27q0 -40 27 -40q12 0 25.5 25t24 75t10.5 109q0 93 -50 145.5t-137 52.5t-162.5 -55.5t-118 -143t-42.5 -180.5q0 -108 49.5 -177t156.5 -69q77 0 158 54l23 -32q-93 -63 -186 -63zM331 194q12 0 23 8.5t15.5 15.5t12.5 21l23 114q-8 35 -31 35
q-35 0 -55.5 -47.5t-20.5 -96.5q0 -50 33 -50z" />
    <glyph glyph-name="A" unicode="A" horiz-adv-x="484" 
d="M436 0h-177l7 93h-107l-34 -93h-185l293 667h203v-667zM280 247l17 229l-83 -229h66z" />
    <glyph glyph-name="B" unicode="B" horiz-adv-x="502" 
d="M274 0h-287l147 667h215q86 0 133 -44t47 -109q0 -67 -41 -122t-104 -61q42 -12 64 -46.5t22 -79.5q0 -37 -11.5 -72t-34 -65.5t-61.5 -49t-89 -18.5zM286 415q24 0 40 17.5t16 42.5q0 38 -47 38h-18l-21 -98h30zM232 154q27 0 44.5 18.5t17.5 48.5q0 40 -43 40h-30
l-23 -107h34z" />
    <glyph glyph-name="C" unicode="C" horiz-adv-x="468" 
d="M231 -12q-102 0 -156 63.5t-54 171.5q0 51 10 109t34 120.5t58.5 112t88 81.5t118.5 32q53 0 92.5 -20.5t60.5 -54.5t31 -72t10 -80l-162 -32q-2 49 -10.5 76t-31.5 27q-26 0 -49.5 -35t-38.5 -84.5t-23.5 -99.5t-8.5 -84q0 -75 39 -75t73 78l142 -56q-76 -178 -223 -178
z" />
    <glyph glyph-name="D" unicode="D" horiz-adv-x="524" 
d="M194 0h-207l147 667h201q82 0 140.5 -63t58.5 -171q0 -52 -9.5 -106.5t-34.5 -114t-62 -106t-98 -76.5t-136 -30zM277 513l-79 -359h27q32 0 58.5 31.5t41.5 77.5t22.5 90t7.5 77q0 41 -14.5 62t-37.5 21h-26z" />
    <glyph glyph-name="E" unicode="E" horiz-adv-x="405" 
d="M323 0h-336l147 667h336l-34 -154h-159l-21 -98h152l-34 -154h-153l-23 -107h159z" />
    <glyph glyph-name="F" unicode="F" horiz-adv-x="400" 
d="M164 0h-177l147 667h336l-34 -154h-159l-21 -98h152l-34 -154h-153z" />
    <glyph glyph-name="G" unicode="G" horiz-adv-x="495" 
d="M218 -12q-94 0 -145.5 63.5t-51.5 171.5q0 55 11 114t36 120.5t61 110t91.5 79.5t121.5 31q87 0 128.5 -56t42.5 -147l-146 -36q0 35 -11 59t-33 24q-49 0 -86 -104.5t-37 -198.5q0 -40 10 -57.5t36 -17.5q22 0 41 27t27 60h-67l35 154h230q-37 -201 -104 -299t-190 -98z
" />
    <glyph glyph-name="H" unicode="H" horiz-adv-x="532" 
d="M436 0h-176l58 266h-96l-58 -266h-177l147 667h177l-54 -247h96l54 247h176z" />
    <glyph glyph-name="I" unicode="I" horiz-adv-x="259" 
d="M164 0h-177l147 667h177z" />
    <glyph glyph-name="J" unicode="J" horiz-adv-x="375" 
d="M98 -12q-88 0 -136 36l65 143q20 -23 54 -23q56 0 68 57l103 466h177l-105 -475q-24 -107 -77.5 -155.5t-148.5 -48.5z" />
    <glyph glyph-name="K" unicode="K" horiz-adv-x="524" 
d="M475 0h-185l-37 223l-59 -85l-30 -138h-177l147 667h177l-54 -248l153 248h201l-225 -311z" />
    <glyph glyph-name="L" unicode="L" horiz-adv-x="396" 
d="M323 0h-336l147 667h177l-113 -513h159z" />
    <glyph glyph-name="M" unicode="M" horiz-adv-x="675" 
d="M579 0h-174l71 321l-165 -321h-55l-22 321l-70 -321h-177l147 667h215l19 -268l140 268h218z" />
    <glyph glyph-name="N" unicode="N" horiz-adv-x="532" 
d="M436 0h-164l-47 278l-61 -278h-177l147 667h177l39 -261l57 261h176z" />
    <glyph glyph-name="O" unicode="O" horiz-adv-x="522" 
d="M231 -12q-103 0 -156.5 65t-53.5 170q0 52 10.5 110.5t34.5 120.5t59 111.5t88 81t117 31.5q102 0 156 -66t54 -170q0 -52 -10.5 -110.5t-34.5 -120.5t-59 -111t-88 -80.5t-117 -31.5zM239 144q34 0 63.5 59t44 127.5t14.5 114.5q0 77 -41 77q-26 0 -49.5 -35t-38.5 -85
t-23.5 -100t-8.5 -83q0 -75 39 -75z" />
    <glyph glyph-name="P" unicode="P" horiz-adv-x="496" 
d="M164 0h-177l147 667h207q84 0 135.5 -53.5t51.5 -133.5q0 -108 -70.5 -183t-199.5 -75h-45zM273 376h-2q34 0 54 25.5t20 59.5q0 24 -12.5 38t-32.5 14h-23l-30 -137h26z" />
    <glyph glyph-name="Q" unicode="Q" horiz-adv-x="523" 
d="M231 -12q-103 0 -156.5 65t-53.5 170q0 52 10.5 110.5t34.5 120.5t59 111.5t88 81t117 31.5q102 0 156 -66t54 -170q0 -101 -39 -214.5t-112 -178.5l10 -61l-127 -24l-5 27q-17 -3 -36 -3zM239 144h3l-14 86l94 17q39 111 39 198q0 77 -41 77q-26 0 -49.5 -35t-38.5 -85
t-23.5 -100t-8.5 -83q0 -75 39 -75z" />
    <glyph glyph-name="R" unicode="R" horiz-adv-x="511" 
d="M433 0h-184l-9 222h-27l-49 -222h-177l147 667h209q79 0 131.5 -54.5t52.5 -134.5q0 -73 -38 -138t-82 -85zM273 376q31 0 51 24.5t20 59.5q0 53 -45 53h-22l-30 -137h26z" />
    <glyph glyph-name="S" unicode="S" horiz-adv-x="437" 
d="M179 -12q-65 0 -121 23t-86 61l97 130q19 -26 49 -42t60 -16q22 0 36 14t14 36q0 20 -25.5 44.5t-56 47t-56 63.5t-25.5 91q0 99 68 168.5t169 69.5q52 0 102 -19t82 -54l-91 -131q-37 48 -95 48q-23 0 -35 -13.5t-12 -32.5q0 -18 16.5 -37t40 -38t47 -41.5t40 -56.5
t16.5 -74q0 -99 -65.5 -170t-168.5 -71z" />
    <glyph glyph-name="T" unicode="T" horiz-adv-x="406" 
d="M238 0h-177l113 513h-97l34 154h370l-34 -154h-96z" />
    <glyph glyph-name="U" unicode="U" horiz-adv-x="532" 
d="M236 -12q-87 0 -145.5 53.5t-58.5 139.5q0 21 4 40l98 446h177l-102 -463q-2 -12 -2 -21q0 -18 12 -29.5t30 -11.5q42 0 56 62l102 463h177l-101 -453q-24 -113 -91.5 -169.5t-155.5 -56.5z" />
    <glyph glyph-name="V" unicode="V" horiz-adv-x="484" 
d="M289 0h-203l1 667h177l-31 -443l164 443h186z" />
    <glyph glyph-name="W" unicode="W" horiz-adv-x="684" 
d="M504 0h-176l36 346l-117 -346h-175l25 667h176l-40 -362l132 362h135l-27 -362l119 362h181z" />
    <glyph glyph-name="X" unicode="X" horiz-adv-x="509" 
d="M461 0h-185l-31 182l-103 -182h-202l238 350l-83 317h186l23 -171l92 171h203l-227 -334z" />
    <glyph glyph-name="Y" unicode="Y" horiz-adv-x="489" 
d="M279 0h-177l59 269l-75 398h179l14 -232l117 232h193l-252 -398z" />
    <glyph glyph-name="Z" unicode="Z" horiz-adv-x="412" 
d="M332 0h-360l32 147l225 366h-144l34 154h353l-31 -140l-230 -373h155z" />
    <glyph glyph-name="bracketleft" unicode="[" horiz-adv-x="227" 
d="M113 -190h-173l192 868h174l-23 -101h-63l-147 -666h63z" />
    <glyph glyph-name="backslash" unicode="\" horiz-adv-x="254" 
d="M88 -20v707h108v-707h-108z" />
    <glyph glyph-name="bracketright" unicode="]" horiz-adv-x="227" 
d="M95 -190h-173l22 101h63l148 666h-63l22 101h174z" />
    <glyph glyph-name="asciicircum" unicode="^" horiz-adv-x="344" 
d="M344 333h-105l2 210l-91 -210h-112l171 334h113z" />
    <glyph glyph-name="underscore" unicode="_" horiz-adv-x="279" 
d="M196 -141h-284l23 101h284z" />
    <glyph glyph-name="grave" unicode="`" horiz-adv-x="209" 
d="M278 556h-97l-80 144h129z" />
    <glyph glyph-name="a" unicode="a" horiz-adv-x="453" 
d="M377 0h-157l10 46q-18 -26 -48.5 -42t-62.5 -16q-51 0 -85 34.5t-34 92.5q0 80 45.5 134t113.5 54q35 0 67.5 -14.5t47.5 -40.5l9 40q3 10 3 24q0 24 -20 38.5t-50 14.5q-55 0 -102 -34l-31 113q63 51 175 51q83 0 138 -36t55 -103q0 -20 -5 -44zM201 92q32 0 46 30
l10 45q-12 33 -48 33q-24 0 -37 -20.5t-13 -47.5q0 -19 11.5 -29.5t30.5 -10.5z" />
    <glyph glyph-name="b" unicode="b" 
d="M254 -12q-82 0 -103 67l-12 -55h-157l146 667h158l-53 -237q46 65 105 65q116 0 116 -165q0 -52 -12.5 -109.5t-36 -110.5t-63.5 -87.5t-88 -34.5zM213 127q20 0 36 20.5t25 50.5t13.5 58.5t4.5 49.5q0 50 -40 50q-25 0 -42 -33l-36 -162q8 -34 39 -34z" />
    <glyph glyph-name="c" unicode="c" horiz-adv-x="371" 
d="M200 -12q-89 0 -140 51.5t-51 144.5q0 123 69.5 217t179.5 94q92 0 144 -50l-70 -118q-19 29 -59 29q-43 0 -73 -46.5t-30 -105.5q0 -38 19 -57.5t52 -19.5q30 0 55 22l19 -125q-44 -36 -115 -36z" />
    <glyph glyph-name="d" unicode="d" 
d="M207 495q81 0 103 -67l53 239h156l-147 -667h-157l12 53q-44 -65 -104 -65q-117 0 -117 165q0 72 20.5 147.5t68.5 135t112 59.5zM247 356q-37 0 -58 -63t-21 -116q0 -50 40 -50q26 0 43 33l36 162q-7 34 -40 34z" />
    <glyph glyph-name="e" unicode="e" horiz-adv-x="435" 
d="M200 -12q-90 0 -140.5 52.5t-50.5 145.5q0 73 28 142t85.5 118t131.5 49q89 0 131 -49t42 -131q0 -48 -20 -125h-254q-1 -5 -1 -16t5.5 -23.5t25 -24.5t50.5 -12q38 0 80 31l48 -98q-30 -27 -74 -43t-87 -16zM283 297h2q2 16 2 24q0 22 -13 35t-33 13q-29 0 -45 -21.5
t-21 -50.5h108z" />
    <glyph glyph-name="f" unicode="f" horiz-adv-x="275" 
d="M156 0h-157l76 346h-42l31 137h41l4 19q20 90 62 132.5t111 42.5q51 0 92 -17l-48 -121q-6 5 -17 5q-35 0 -43 -42l-4 -19h57l-31 -137h-56z" />
    <glyph glyph-name="g" unicode="g" 
d="M141 -196q-123 0 -181 66l76 115q37 -48 99 -48q33 0 54 22.5t33 72.5l11 48q-42 -66 -104 -66q-120 0 -120 154q0 50 11 103.5t33 105.5t62 85t91 33q33 0 64.5 -17t38.5 -50l13 55h157l-101 -451q-28 -127 -88.5 -177.5t-148.5 -50.5zM212 154q24 0 44 33l30 135
q-11 34 -41 34q-37 0 -55.5 -52t-18.5 -100q0 -50 41 -50z" />
    <glyph glyph-name="h" unicode="h" 
d="M373 0h-158l70 316l1 6q1 7 1 9q0 25 -23 25q-29 0 -57 -47l-68 -309h-158l147 667h158l-54 -241q23 29 57 49t70 20q46 0 73.5 -25t27.5 -64q0 -6 -4 -26z" />
    <glyph glyph-name="i" unicode="i" horiz-adv-x="228" 
d="M185 525q-35 0 -58.5 22.5t-23.5 54.5q0 47 32.5 75.5t70.5 28.5q35 0 58 -22.5t23 -54.5q0 -47 -32 -75.5t-70 -28.5zM139 0h-158l107 483h158z" />
    <glyph glyph-name="j" unicode="j" horiz-adv-x="228" 
d="M-53 -196q-56 0 -83 22l51 118q6 -7 22 -7q30 0 41 50l110 496h158l-111 -496q-20 -93 -61.5 -138t-126.5 -45zM185 525q-35 0 -58.5 22.5t-23.5 54.5q0 47 32.5 75.5t70.5 28.5q35 0 58 -22.5t23 -54.5q0 -47 -32 -75.5t-70 -28.5z" />
    <glyph glyph-name="k" unicode="k" horiz-adv-x="445" 
d="M396 0h-170l-17 169l-48 -67l-22 -102h-158l147 667h158l-78 -355l109 171h177l-155 -213z" />
    <glyph glyph-name="l" unicode="l" horiz-adv-x="258" 
d="M146 -12q-141 0 -141 100q0 26 6 51l117 528h158l-110 -497q-2 -10 -2 -20q1 -23 23 -23q10 0 18 6l-5 -133q-20 -12 -64 -12z" />
    <glyph glyph-name="m" unicode="m" horiz-adv-x="696" 
d="M606 0h-157l70 316l1 6q1 6 1 9q0 25 -23 25q-31 0 -57 -47l-68 -309h-158l70 316l1 3q0 3 0.5 6.5t0.5 6.5q0 24 -23 24q-30 0 -57 -47l-68 -309h-158l107 483h158l-14 -57q21 29 56.5 49t70.5 20q43 0 71.5 -23t28.5 -53v-4q21 33 58.5 56.5t75.5 23.5q45 0 72.5 -24
t27.5 -65q0 -11 -3 -26z" />
    <glyph glyph-name="n" unicode="n" 
d="M373 0h-158l70 316q0 1 1 7t1 8q0 25 -23 25q-29 0 -57 -47l-68 -309h-158l107 483h158l-14 -57q23 29 57 49t70 20q47 0 74 -24.5t27 -64.5q0 -2 -4 -26z" />
    <glyph glyph-name="o" unicode="o" horiz-adv-x="451" 
d="M196 -12q-92 0 -139.5 53t-47.5 144q0 73 27.5 142.5t85 118.5t131.5 49q92 0 140 -53t48 -144q0 -53 -17 -107.5t-47 -100t-77.5 -74t-103.5 -28.5zM205 127q35 0 56 63.5t21 111.5q0 54 -37 54q-35 0 -56 -64t-21 -111q0 -54 37 -54z" />
    <glyph glyph-name="p" unicode="p" 
d="M254 -12q-82 0 -103 67l-53 -239h-157l147 667h158l-13 -53q46 65 105 65q116 0 116 -165q0 -52 -12.5 -109.5t-36 -110.5t-63.5 -87.5t-88 -34.5zM213 127q20 0 36 20.5t25 50.5t13.5 58.5t4.5 49.5q0 50 -40 50q-25 0 -42 -33l-36 -162q8 -34 39 -34z" />
    <glyph glyph-name="q" unicode="q" 
d="M207 495q81 0 103 -67l12 55h156l-147 -667h-157l53 237q-44 -65 -104 -65q-117 0 -117 165q0 72 20.5 147.5t68.5 135t112 59.5zM247 356q-37 0 -58 -63t-21 -116q0 -50 40 -50q26 0 43 33l36 162q-7 34 -40 34z" />
    <glyph glyph-name="r" unicode="r" horiz-adv-x="309" 
d="M139 0h-158l107 483h158l-13 -56q18 30 51.5 49.5t69.5 19.5l-35 -154q-12 7 -30 7q-46 0 -84 -47z" />
    <glyph glyph-name="s" unicode="s" horiz-adv-x="382" 
d="M156 -12q-61 0 -113.5 23.5t-73.5 52.5l82 101q42 -54 104 -54q20 0 32 8.5t12 21.5t-25 28t-55 28.5t-55 45t-25 74.5q0 74 49.5 126t138.5 52q49 0 96 -19t79 -53l-78 -100q-12 16 -40.5 32.5t-56.5 16.5q-38 0 -38 -27q0 -11 26 -25t57 -28t57 -46.5t26 -76.5
q0 -73 -54.5 -127t-144.5 -54z" />
    <glyph glyph-name="t" unicode="t" horiz-adv-x="282" 
d="M164 -12q-142 0 -142 102q0 24 6 49l47 207h-42l31 137h42l29 132h157l-29 -132h56l-31 -137h-56l-39 -176q-2 -12 -2 -19q0 -24 23 -24q10 0 18 6l-5 -133q-21 -12 -63 -12z" />
    <glyph glyph-name="u" unicode="u" 
d="M88 483h158l-70 -316q0 -2 -1 -5q-2 -8 -2 -10q0 -25 24 -25q30 0 56 46l69 310h158l-107 -483h-158l13 57q-22 -28 -56 -48.5t-70 -20.5q-47 0 -74 24.5t-27 64.5q0 2 4 26z" />
    <glyph glyph-name="v" unicode="v" horiz-adv-x="435" 
d="M247 0h-167l-33 483h162l-7 -285l122 285h171z" />
    <glyph glyph-name="w" unicode="w" horiz-adv-x="674" 
d="M506 0h-166l2 269l-116 -269h-166l-10 483h158l-11 -273l110 273h147l-3 -273l112 273h167z" />
    <glyph glyph-name="x" unicode="x" horiz-adv-x="418" 
d="M369 0h-163l-18 129l-77 -129h-171l169 242l-57 241h161l16 -127l72 127h170l-165 -241z" />
    <glyph glyph-name="y" unicode="y" 
d="M141 -196q-61 0 -109.5 18t-71.5 48l76 115q37 -48 99 -48q36 0 56 23.5t31 71.5l11 49q-21 -27 -56.5 -47t-69.5 -20q-46 0 -73.5 24.5t-27.5 65.5q0 10 4 24l78 355h158l-65 -290q-2 -14 -2 -16q0 -24 24 -24q32 0 56 48l63 282h158l-101 -451q-50 -228 -238 -228z" />
    <glyph glyph-name="z" unicode="z" horiz-adv-x="368" 
d="M295 0h-330l25 116l182 230h-131l31 137h326l-25 -111l-185 -235h136z" />
    <glyph glyph-name="braceleft" unicode="{" horiz-adv-x="237" 
d="M123 -190h-16q-47 0 -84.5 30.5t-38.5 75.5q0 2 3 26l44 195q2 10 2 17q0 21 -11 34.5t-29 13.5l19 84q51 0 66 65l43 195q31 132 169 132h26l-22 -101h-26q-29 0 -36 -31l-48 -223q-9 -37 -23.5 -58.5t-42.5 -32.5q29 -14 29 -56q0 -18 -4 -34l-42 -190q-3 -15 -3 -18
q0 -10 6 -16.5t15 -6.5h26z" />
    <glyph glyph-name="bar" unicode="|" horiz-adv-x="184" 
d="M163 -20h-102v707h102v-707z" />
    <glyph glyph-name="braceright" unicode="}" horiz-adv-x="237" 
d="M113 678h16q47 0 85 -30.5t38 -75.5q0 -14 -3 -26l-43 -195q-2 -10 -2 -17q0 -21 10.5 -34.5t28.5 -13.5l-19 -84q-51 0 -66 -65l-43 -195q-30 -132 -169 -132h-26l22 101h26q29 0 36 31l49 223q8 38 22.5 59t42.5 32q-29 14 -29 56q0 18 4 34l43 190q2 10 2 18
q0 10 -6 16.5t-15 6.5h-26z" />
    <glyph glyph-name="asciitilde" unicode="~" horiz-adv-x="437" 
d="M402 667l101 -8q-5 -33 -12.5 -64t-22 -67t-32.5 -61.5t-46 -43t-62 -17.5q-35 0 -54.5 17.5t-24 42t-5 49t-2 42t-10.5 17.5q-33 0 -67 -168l-103 7q8 44 19.5 82.5t31.5 80.5t52.5 66.5t73.5 24.5q35 0 54.5 -17.5t24 -42.5t5 -49.5t2 -42t10.5 -17.5q33 0 67 169z" />
    <glyph glyph-name="uni00A0" unicode="&#xa0;" horiz-adv-x="150" 
 />
    <glyph glyph-name="exclamdown" unicode="&#xa1;" horiz-adv-x="271" 
d="M67 248h141l-72 -432h-189zM181 495q37 0 62 -25.5t25 -61.5q0 -43 -31 -74t-74 -31q-36 0 -61.5 26t-25.5 63q0 42 31.5 72.5t73.5 30.5z" />
    <glyph glyph-name="cent" unicode="&#xa2;" horiz-adv-x="371" 
d="M78 -100l24 109q-93 46 -93 175q0 108 55 196t145 109l17 76h112l-18 -78q52 -14 82 -42l-70 -118q-19 29 -59 29q-43 0 -73 -46.5t-30 -105.5q0 -38 19 -57.5t52 -19.5q30 0 55 22l19 -125q-39 -33 -105 -36l-20 -88h-112z" />
    <glyph glyph-name="sterling" unicode="&#xa3;" horiz-adv-x="469" 
d="M38 281l21 97h35q-6 26 -6 60q0 105 76.5 172t168.5 67q79 0 132 -42.5t54 -122.5l-151 -41q-2 64 -33 64q-25 0 -41.5 -37.5t-16.5 -86.5q0 -13 2 -33h66l-21 -97h-47q-18 -88 -73 -124q24 8 35 8q23 0 52 -10.5t48 -10.5q38 0 66 25l10 -143q-43 -38 -110 -38
q-45 0 -99 21t-81 21q-39 0 -90 -37l-21 117q46 26 72.5 69t26.5 92v10h-75z" />
    <glyph glyph-name="yen" unicode="&#xa5;" horiz-adv-x="489" 
d="M278 0h-177l24 110h-128l21 94h127l15 65h-128l22 93h88l-57 305h179l14 -232l117 232h193l-193 -305h90l-22 -93h-127l-14 -65h127l-21 -94h-127z" />
    <glyph glyph-name="brokenbar" unicode="&#xa6;" horiz-adv-x="184" 
d="M163 -20h-102v316h102v-316zM163 371h-102v316h102v-316z" />
    <glyph glyph-name="section" unicode="&#xa7;" horiz-adv-x="384" 
d="M391 347q0 -104 -102 -155q47 -33 47 -92q0 -76 -56 -128.5t-139 -52.5q-65 0 -117.5 18t-76.5 51l83 100q34 -54 100 -54q24 0 38.5 13.5t14.5 31.5q0 17 -16 30.5t-39.5 25t-46.5 26.5t-39 42t-16 63q0 49 29 88t78 57q-23 14 -37.5 41t-14.5 56q0 72 53.5 120.5
t129.5 48.5q123 0 186 -71l-80 -86q-38 48 -94 48q-21 0 -33.5 -12.5t-12.5 -28.5q0 -18 25 -36t55.5 -32t55.5 -43.5t25 -68.5zM246 307q0 34 -27 51q-48 -13 -48 -61q0 -37 38 -52q37 20 37 62z" />
    <glyph glyph-name="dieresis" unicode="&#xa8;" horiz-adv-x="291" 
d="M401 624q0 -35 -28 -62t-63 -27q-30 0 -50 20.5t-20 50.5q0 35 27.5 62t62.5 27q30 0 50.5 -20.5t20.5 -50.5zM216 624q0 -35 -27.5 -62t-62.5 -27q-31 0 -51 20.5t-20 50.5q0 35 27.5 62t62.5 27q31 0 51 -20.5t20 -50.5z" />
    <glyph glyph-name="copyright" unicode="&#xa9;" horiz-adv-x="778" 
d="M754 334q0 -142 -101.5 -243.5t-244.5 -101.5q-142 0 -243 101t-101 244t101 244t243 101q143 0 244.5 -101.5t101.5 -243.5zM714 334q0 125 -90.5 215t-215.5 90t-214.5 -90t-89.5 -215t89.5 -215t214.5 -90t215.5 90t90.5 215zM507 217l28 -38q-66 -55 -141 -55
q-86 0 -138.5 51.5t-52.5 131.5q0 100 69.5 168.5t162.5 68.5q111 0 161 -81l-42 -30q-37 67 -122 67q-68 0 -123 -55.5t-55 -135.5q0 -59 38 -100t103 -41q63 0 112 49z" />
    <glyph glyph-name="ordfeminine" unicode="&#xaa;" horiz-adv-x="334" 
d="M231 560q-23 0 -39 -38.5t-16 -78.5q0 -36 27 -36q16 0 31 24l24 108q-8 21 -27 21zM280 640h112l-69 -314h-112l7 34q-31 -42 -73 -42q-37 0 -60.5 28t-23.5 86q0 77 39.5 146.5t99.5 69.5q51 0 73 -42z" />
    <glyph glyph-name="guillemotleft" unicode="&#xab;" horiz-adv-x="446" 
d="M194 63h-115l-50 180l130 177h119l-133 -181zM373 63h-116l-50 180l130 177h120l-133 -181z" />
    <glyph glyph-name="logicalnot" unicode="&#xac;" horiz-adv-x="388" 
d="M409 474l-61 -279h-97l41 185h-233l20 94h330z" />
    <glyph glyph-name="registered" unicode="&#xae;" horiz-adv-x="494" 
d="M508 465q0 -88 -62.5 -150t-150.5 -62t-149.5 62t-61.5 150t62 150t150 62t150 -61.5t62 -150.5zM474 465q0 75 -52 126.5t-127 51.5q-74 0 -125.5 -51.5t-51.5 -126.5q0 -74 51.5 -126t125.5 -52t126.5 52t52.5 126zM370 343h-42l-42 96h-42l-21 -96h-36l53 243h94
q32 0 52 -18t20 -46q0 -36 -25 -59t-55 -23zM368 519q0 37 -42 37h-56l-19 -86h63q22 0 38 14t16 35z" />
    <glyph glyph-name="macron" unicode="&#xaf;" horiz-adv-x="268" 
d="M344 591h-267l19 87h267z" />
    <glyph glyph-name="degree" unicode="&#xb0;" horiz-adv-x="322" 
d="M368 534q0 -59 -42 -101t-101 -42t-100.5 42t-41.5 101t41.5 101t100.5 42t101 -42t42 -101zM287 534q0 26 -18.5 44t-43.5 18t-43 -18t-18 -44t17.5 -43.5t42.5 -17.5q26 0 44.5 18t18.5 43z" />
    <glyph glyph-name="plusminus" unicode="&#xb1;" horiz-adv-x="388" 
d="M369 291h-113l-31 -138h-104l31 138h-113l21 93h113l29 130h103l-29 -130h113zM307 9h-330l20 94h330z" />
    <glyph glyph-name="twosuperior" unicode="&#xb2;" horiz-adv-x="322" 
d="M350 421h-286l20 91q134 94 172 128t38 62q0 33 -42 33q-41 0 -79 -41l-52 75q61 58 142 58q64 0 106.5 -30t42.5 -83q0 -52 -40 -92t-143 -109h142z" />
    <glyph glyph-name="threesuperior" unicode="&#xb3;" horiz-adv-x="322" 
d="M374 538q0 -50 -42 -87t-107 -37q-52 0 -94 18t-63 51l83 68q23 -45 67 -45q20 0 32 13t12 29q0 30 -41 30q-24 0 -31 -1l20 91q5 -1 34 -1q49 0 49 38q0 30 -43 30q-42 0 -71 -33l-56 66q59 59 138 59q66 0 107 -27.5t41 -75.5q0 -37 -26.5 -68.5t-71.5 -35.5
q32 -9 47.5 -31.5t15.5 -50.5z" />
    <glyph glyph-name="acute" unicode="&#xb4;" horiz-adv-x="209" 
d="M310 700l-144 -144h-99l112 144h131z" />
    <glyph glyph-name="mu" unicode="&#xb5;" 
d="M98 -184h-157l147 667h158l-71 -319q-9 -37 20 -37q31 0 58 45l69 311h158l-107 -483h-158l12 55q-38 -50 -91 -67z" />
    <glyph glyph-name="paragraph" unicode="&#xb6;" horiz-adv-x="449" 
d="M340 -100h-73l155 695h-73l-154 -695h-73l94 423q-57 0 -97 44.5t-40 111.5q0 73 56.5 130.5t137.5 57.5h237z" />
    <glyph glyph-name="periodcentered" unicode="&#xb7;" horiz-adv-x="270" 
d="M126 148q-36 0 -61.5 26t-25.5 62q0 43 31 74t74 31q36 0 61.5 -26t25.5 -63q0 -42 -31.5 -73t-73.5 -31z" />
    <glyph glyph-name="cedilla" unicode="&#xb8;" horiz-adv-x="199" 
d="M14 -198q-63 0 -102 41l37 54q26 -33 64 -33q15 0 24.5 8.5t9.5 21.5q0 18 -18 18q-12 0 -21 -12l-47 30l48 81h73l-39 -60q10 9 23 9q24 0 39.5 -16.5t15.5 -45.5q0 -42 -30 -69t-77 -27z" />
    <glyph glyph-name="onesuperior" unicode="&#xb9;" horiz-adv-x="273" 
d="M278 421h-117l54 248l-61 -50l-53 69l165 133h100z" />
    <glyph glyph-name="ordmasculine" unicode="&#xba;" horiz-adv-x="327" 
d="M198 318q-63 0 -98.5 36.5t-35.5 93.5q0 79 47.5 139.5t123.5 60.5q63 0 98.5 -36.5t35.5 -93.5q0 -79 -47.5 -139.5t-123.5 -60.5zM203 407q24 0 38.5 43.5t14.5 73.5q0 34 -27 34q-24 0 -38 -43.5t-14 -73.5q0 -34 26 -34z" />
    <glyph glyph-name="guillemotright" unicode="&#xbb;" horiz-adv-x="446" 
d="M73 420h115l50 -180l-130 -177h-119l133 181zM251 420h116l50 -180l-130 -177h-120l133 181z" />
    <glyph glyph-name="onequarter" unicode="&#xbc;" horiz-adv-x="720" 
d="M627 667l-432 -667h-60l431 667h61zM673 77h-32l-16 -77h-117l17 77h-155l20 89l183 234h140l-51 -232h31zM545 168l24 105l-81 -105h57zM244 267h-117l54 248l-61 -50l-53 69l165 133h100z" />
    <glyph glyph-name="onehalf" unicode="&#xbd;" horiz-adv-x="758" 
d="M627 667l-432 -667h-60l431 667h61zM694 0h-286l20 91q134 94 172 128t38 62q0 33 -42 33q-41 0 -79 -41l-52 75q61 58 142 58q64 0 106.5 -30t42.5 -83q0 -52 -40 -92t-143 -109h142zM244 267h-117l54 248l-61 -50l-53 69l165 133h100z" />
    <glyph glyph-name="threequarters" unicode="&#xbe;" horiz-adv-x="756" 
d="M663 667l-432 -667h-60l431 667h61zM709 77h-32l-16 -77h-117l17 77h-155l20 89l183 234h140l-51 -232h31zM581 168l24 105l-81 -105h57zM340 384q0 -50 -42 -87t-107 -37q-52 0 -94 18t-63 51l83 68q23 -45 67 -45q20 0 32 13t12 29q0 30 -41 30q-24 0 -31 -1l20 91
q5 -1 34 -1q49 0 49 38q0 30 -43 30q-42 0 -71 -33l-56 66q59 59 138 59q66 0 107 -27.5t41 -75.5q0 -37 -26.5 -68.5t-71.5 -35.5q32 -9 47.5 -31.5t15.5 -50.5z" />
    <glyph glyph-name="questiondown" unicode="&#xbf;" horiz-adv-x="304" 
d="M99 223l141 43q8 -22 8 -59q0 -47 -19.5 -85.5t-42.5 -58.5t-42.5 -42.5t-19.5 -40.5q0 -28 28 -28q26 0 45 20l47 -112q-68 -55 -152 -55q-64 0 -108.5 35t-44.5 91q0 38 17 71.5t41.5 58t48.5 46t41 44.5t17 45q0 17 -5 27zM211 495q36 0 61.5 -26t25.5 -62
q0 -43 -31.5 -74t-73.5 -31q-37 0 -62 26t-25 63q0 42 31 73t74 31z" />
    <glyph glyph-name="Agrave" unicode="&#xc0;" horiz-adv-x="484" 
d="M426 728h-97l-80 144h129zM436 0h-177l7 93h-107l-34 -93h-185l293 667h203v-667zM280 247l17 229l-83 -229h66z" />
    <glyph glyph-name="Aacute" unicode="&#xc1;" horiz-adv-x="484" 
d="M514 872l-144 -144h-99l112 144h131zM436 0h-177l7 93h-107l-34 -93h-185l293 667h203v-667zM280 247l17 229l-83 -229h66z" />
    <glyph glyph-name="Acircumflex" unicode="&#xc2;" horiz-adv-x="484" 
d="M480 728h-82l-30 79l-62 -79h-86l92 144h138zM436 0h-177l7 93h-107l-34 -93h-185l293 667h203v-667zM280 247l17 229l-83 -229h66z" />
    <glyph glyph-name="Atilde" unicode="&#xc3;" horiz-adv-x="484" 
d="M404 726q-25 0 -39 13.5t-23.5 27t-23.5 13.5q-21 0 -31 -48h-80q30 134 116 134q20 0 34 -8.5t19 -18t14 -18t20 -8.5q19 0 31 47h80q-14 -62 -43.5 -98t-73.5 -36zM436 0h-177l7 93h-107l-34 -93h-185l293 667h203v-667zM280 247l17 229l-83 -229h66z" />
    <glyph glyph-name="Adieresis" unicode="&#xc4;" horiz-adv-x="484" 
d="M536 799q0 -35 -28 -62t-63 -27q-30 0 -50 20.5t-20 50.5q0 35 27.5 62t62.5 27q30 0 50.5 -20.5t20.5 -50.5zM351 799q0 -35 -27.5 -62t-62.5 -27q-31 0 -51 20.5t-20 50.5q0 35 27.5 62t62.5 27q31 0 51 -20.5t20 -50.5zM436 0h-177l7 93h-107l-34 -93h-185l293 667
h203v-667zM280 247l17 229l-83 -229h66z" />
    <glyph glyph-name="Aring" unicode="&#xc5;" horiz-adv-x="484" 
d="M350 692q-38 0 -61.5 24t-23.5 61q0 43 32 74.5t75 31.5q37 0 60.5 -24t23.5 -61q0 -43 -31.5 -74.5t-74.5 -31.5zM358 756q14 0 25 10.5t11 24.5q0 13 -8 21t-20 8q-14 0 -25 -11t-11 -25q0 -12 7.5 -20t20.5 -8zM436 0h-177l7 93h-107l-34 -93h-185l293 667h203v-667z
M280 247l17 229l-83 -229h66z" />
    <glyph glyph-name="AE" unicode="&#xc6;" horiz-adv-x="659" 
d="M586 0h-335l20 93h-98l-47 -93h-184l379 667h412l-34 -154h-159l-21 -98h152l-34 -154h-152l-24 -107h160zM305 247l47 212l-104 -212h57z" />
    <glyph glyph-name="Ccedilla" unicode="&#xc7;" horiz-adv-x="468" 
d="M231 -12h-1l-24 -37q10 9 23 9q24 0 39.5 -16.5t15.5 -45.5q0 -42 -30 -69t-77 -27q-63 0 -102 41l37 54q26 -33 64 -33q15 0 24.5 8.5t9.5 21.5q0 18 -18 18q-12 0 -21 -12l-47 30l39 67q-69 19 -105.5 78.5t-36.5 147.5q0 51 10 109t34 120.5t58.5 112t88 81.5
t118.5 32q53 0 92.5 -20.5t60.5 -54.5t31 -72t10 -80l-162 -32q-2 49 -10.5 76t-31.5 27q-26 0 -49.5 -35t-38.5 -84.5t-23.5 -99.5t-8.5 -84q0 -75 39 -75t73 78l142 -56q-76 -178 -223 -178z" />
    <glyph glyph-name="Egrave" unicode="&#xc8;" horiz-adv-x="405" 
d="M395 728h-97l-80 144h129zM323 0h-336l147 667h336l-34 -154h-159l-21 -98h152l-34 -154h-153l-23 -107h159z" />
    <glyph glyph-name="Eacute" unicode="&#xc9;" horiz-adv-x="405" 
d="M486 872l-144 -144h-99l112 144h131zM323 0h-336l147 667h336l-34 -154h-159l-21 -98h152l-34 -154h-153l-23 -107h159z" />
    <glyph glyph-name="Ecircumflex" unicode="&#xca;" horiz-adv-x="405" 
d="M446 728h-82l-30 79l-62 -79h-86l92 144h138zM323 0h-336l147 667h336l-34 -154h-159l-21 -98h152l-34 -154h-153l-23 -107h159z" />
    <glyph glyph-name="Edieresis" unicode="&#xcb;" horiz-adv-x="405" 
d="M505 799q0 -35 -28 -62t-63 -27q-30 0 -50 20.5t-20 50.5q0 35 27.5 62t62.5 27q30 0 50.5 -20.5t20.5 -50.5zM320 799q0 -35 -27.5 -62t-62.5 -27q-31 0 -51 20.5t-20 50.5q0 35 27.5 62t62.5 27q31 0 51 -20.5t20 -50.5zM323 0h-336l147 667h336l-34 -154h-159l-21 -98
h152l-34 -154h-153l-23 -107h159z" />
    <glyph glyph-name="Igrave" unicode="&#xcc;" horiz-adv-x="259" 
d="M312 728h-97l-80 144h129zM164 0h-177l147 667h177z" />
    <glyph glyph-name="Iacute" unicode="&#xcd;" horiz-adv-x="259" 
d="M403 872l-144 -144h-99l112 144h131zM164 0h-177l147 667h177z" />
    <glyph glyph-name="Icircumflex" unicode="&#xce;" horiz-adv-x="259" 
d="M366 728h-82l-30 79l-62 -79h-86l92 144h138zM164 0h-177l147 667h177z" />
    <glyph glyph-name="Idieresis" unicode="&#xcf;" horiz-adv-x="259" 
d="M424 799q0 -35 -28 -62t-63 -27q-30 0 -50 20.5t-20 50.5q0 35 27.5 62t62.5 27q30 0 50.5 -20.5t20.5 -50.5zM239 799q0 -35 -27.5 -62t-62.5 -27q-31 0 -51 20.5t-20 50.5q0 35 27.5 62t62.5 27q31 0 51 -20.5t20 -50.5zM164 0h-177l147 667h177z" />
    <glyph glyph-name="Eth" unicode="&#xd0;" horiz-adv-x="550" 
d="M220 0h-207l58 264h-56l31 139h55l59 264h201q82 0 140.5 -63t58.5 -171q0 -52 -9.5 -106.5t-34.5 -114t-62 -106t-98 -76.5t-136 -30zM304 264h-56l-24 -110h27q32 0 58.5 31.5t41.5 77.5t22.5 90t7.5 77q0 41 -14.5 62t-37.5 21h-26l-25 -110h56z" />
    <glyph glyph-name="Ntilde" unicode="&#xd1;" horiz-adv-x="532" 
d="M429 726q-25 0 -39 13.5t-23.5 27t-23.5 13.5q-21 0 -31 -48h-80q30 134 116 134q20 0 34 -8.5t19 -18t14 -18t20 -8.5q19 0 31 47h80q-14 -62 -43.5 -98t-73.5 -36zM436 0h-164l-47 278l-61 -278h-177l147 667h177l39 -261l57 261h176z" />
    <glyph glyph-name="Ograve" unicode="&#xd2;" horiz-adv-x="522" 
d="M444 728h-97l-80 144h129zM231 -12q-103 0 -156.5 65t-53.5 170q0 52 10.5 110.5t34.5 120.5t59 111.5t88 81t117 31.5q102 0 156 -66t54 -170q0 -52 -10.5 -110.5t-34.5 -120.5t-59 -111t-88 -80.5t-117 -31.5zM239 144q34 0 63.5 59t44 127.5t14.5 114.5q0 77 -41 77
q-26 0 -49.5 -35t-38.5 -85t-23.5 -100t-8.5 -83q0 -75 39 -75z" />
    <glyph glyph-name="Oacute" unicode="&#xd3;" horiz-adv-x="522" 
d="M533 872l-144 -144h-99l112 144h131zM231 -12q-103 0 -156.5 65t-53.5 170q0 52 10.5 110.5t34.5 120.5t59 111.5t88 81t117 31.5q102 0 156 -66t54 -170q0 -52 -10.5 -110.5t-34.5 -120.5t-59 -111t-88 -80.5t-117 -31.5zM239 144q34 0 63.5 59t44 127.5t14.5 114.5
q0 77 -41 77q-26 0 -49.5 -35t-38.5 -85t-23.5 -100t-8.5 -83q0 -75 39 -75z" />
    <glyph glyph-name="Ocircumflex" unicode="&#xd4;" horiz-adv-x="522" 
d="M499 728h-82l-30 79l-62 -79h-86l92 144h138zM231 -12q-103 0 -156.5 65t-53.5 170q0 52 10.5 110.5t34.5 120.5t59 111.5t88 81t117 31.5q102 0 156 -66t54 -170q0 -52 -10.5 -110.5t-34.5 -120.5t-59 -111t-88 -80.5t-117 -31.5zM239 144q34 0 63.5 59t44 127.5
t14.5 114.5q0 77 -41 77q-26 0 -49.5 -35t-38.5 -85t-23.5 -100t-8.5 -83q0 -75 39 -75z" />
    <glyph glyph-name="Otilde" unicode="&#xd5;" horiz-adv-x="522" 
d="M424 726q-25 0 -39 13.5t-23.5 27t-23.5 13.5q-21 0 -31 -48h-80q30 134 116 134q20 0 34 -8.5t19 -18t14 -18t20 -8.5q19 0 31 47h80q-14 -62 -43.5 -98t-73.5 -36zM231 -12q-103 0 -156.5 65t-53.5 170q0 52 10.5 110.5t34.5 120.5t59 111.5t88 81t117 31.5
q102 0 156 -66t54 -170q0 -52 -10.5 -110.5t-34.5 -120.5t-59 -111t-88 -80.5t-117 -31.5zM239 144q34 0 63.5 59t44 127.5t14.5 114.5q0 77 -41 77q-26 0 -49.5 -35t-38.5 -85t-23.5 -100t-8.5 -83q0 -75 39 -75z" />
    <glyph glyph-name="Odieresis" unicode="&#xd6;" horiz-adv-x="522" 
d="M556 799q0 -35 -28 -62t-63 -27q-30 0 -50 20.5t-20 50.5q0 35 27.5 62t62.5 27q30 0 50.5 -20.5t20.5 -50.5zM371 799q0 -35 -27.5 -62t-62.5 -27q-31 0 -51 20.5t-20 50.5q0 35 27.5 62t62.5 27q31 0 51 -20.5t20 -50.5zM231 -12q-103 0 -156.5 65t-53.5 170
q0 52 10.5 110.5t34.5 120.5t59 111.5t88 81t117 31.5q102 0 156 -66t54 -170q0 -52 -10.5 -110.5t-34.5 -120.5t-59 -111t-88 -80.5t-117 -31.5zM239 144q34 0 63.5 59t44 127.5t14.5 114.5q0 77 -41 77q-26 0 -49.5 -35t-38.5 -85t-23.5 -100t-8.5 -83q0 -75 39 -75z" />
    <glyph glyph-name="multiply" unicode="&#xd7;" horiz-adv-x="388" 
d="M276 176l-71 91l-119 -97l-57 73l120 97l-71 91l73 61l71 -91l119 97l57 -73l-118 -97l70 -91z" />
    <glyph glyph-name="Oslash" unicode="&#xd8;" horiz-adv-x="522" 
d="M231 -12q-81 0 -134 43l-24 -31h-95l70 92q-27 56 -27 131q0 52 10.5 110.5t34.5 120.5t59 111.5t88 81t117 31.5q79 0 134 -44l25 33h95l-72 -94q28 -56 28 -131q0 -52 -10.5 -110.5t-34.5 -120.5t-59 -111t-88 -80.5t-117 -31.5zM320 522q-38 0 -68 -67.5t-44 -154.5
l147 191q-11 31 -35 31zM239 144q38 0 68.5 67.5t45.5 153.5l-148 -192q10 -29 34 -29z" />
    <glyph glyph-name="Ugrave" unicode="&#xd9;" horiz-adv-x="532" 
d="M451 728h-97l-80 144h129zM236 -12q-87 0 -145.5 53.5t-58.5 139.5q0 21 4 40l98 446h177l-102 -463q-2 -12 -2 -21q0 -18 12 -29.5t30 -11.5q42 0 56 62l102 463h177l-101 -453q-24 -113 -91.5 -169.5t-155.5 -56.5z" />
    <glyph glyph-name="Uacute" unicode="&#xda;" horiz-adv-x="532" 
d="M539 872l-144 -144h-99l112 144h131zM236 -12q-87 0 -145.5 53.5t-58.5 139.5q0 21 4 40l98 446h177l-102 -463q-2 -12 -2 -21q0 -18 12 -29.5t30 -11.5q42 0 56 62l102 463h177l-101 -453q-24 -113 -91.5 -169.5t-155.5 -56.5z" />
    <glyph glyph-name="Ucircumflex" unicode="&#xdb;" horiz-adv-x="532" 
d="M505 728h-82l-30 79l-62 -79h-86l92 144h138zM236 -12q-87 0 -145.5 53.5t-58.5 139.5q0 21 4 40l98 446h177l-102 -463q-2 -12 -2 -21q0 -18 12 -29.5t30 -11.5q42 0 56 62l102 463h177l-101 -453q-24 -113 -91.5 -169.5t-155.5 -56.5z" />
    <glyph glyph-name="Udieresis" unicode="&#xdc;" horiz-adv-x="532" 
d="M560 799q0 -35 -28 -62t-63 -27q-30 0 -50 20.5t-20 50.5q0 35 27.5 62t62.5 27q30 0 50.5 -20.5t20.5 -50.5zM375 799q0 -35 -27.5 -62t-62.5 -27q-31 0 -51 20.5t-20 50.5q0 35 27.5 62t62.5 27q31 0 51 -20.5t20 -50.5zM236 -12q-87 0 -145.5 53.5t-58.5 139.5
q0 21 4 40l98 446h177l-102 -463q-2 -12 -2 -21q0 -18 12 -29.5t30 -11.5q42 0 56 62l102 463h177l-101 -453q-24 -113 -91.5 -169.5t-155.5 -56.5z" />
    <glyph glyph-name="Yacute" unicode="&#xdd;" horiz-adv-x="489" 
d="M517 872l-144 -144h-99l112 144h131zM279 0h-177l59 269l-75 398h179l14 -232l117 232h193l-252 -398z" />
    <glyph glyph-name="Thorn" unicode="&#xde;" horiz-adv-x="496" 
d="M164 0h-177l147 667h177l-22 -101h30q81 0 134 -52.5t53 -134.5q0 -105 -69 -181.5t-201 -76.5h-46zM249 275q31 0 52.5 25t21.5 60q0 25 -13 38.5t-32 13.5h-23l-30 -137h24z" />
    <glyph glyph-name="germandbls" unicode="&#xdf;" horiz-adv-x="581" 
d="M553 171q0 -69 -52.5 -126t-136.5 -57q-119 0 -178 72l74 102q36 -49 84 -49q15 0 26 9t11 22q0 14 -20 28.5t-43.5 27t-43.5 40t-20 63.5t13.5 63.5t32 42.5t37.5 27.5t32.5 27t13.5 32.5q0 19 -17.5 30.5t-44.5 11.5q-31 0 -50.5 -18t-28.5 -59l-101 -461h-158l102 461
q20 95 83.5 155.5t164.5 60.5q87 0 151 -47t64 -116q0 -42 -21 -74t-46 -48t-46 -32t-21 -28q0 -13 21.5 -26t48 -24.5t48 -40.5t21.5 -70z" />
    <glyph glyph-name="agrave" unicode="&#xe0;" horiz-adv-x="453" 
d="M374 556h-97l-80 144h129zM377 0h-157l10 46q-18 -26 -48.5 -42t-62.5 -16q-51 0 -85 34.5t-34 92.5q0 80 45.5 134t113.5 54q35 0 67.5 -14.5t47.5 -40.5l9 40q3 10 3 24q0 24 -20 38.5t-50 14.5q-55 0 -102 -34l-31 113q63 51 175 51q83 0 138 -36t55 -103
q0 -20 -5 -44zM201 92q32 0 46 30l10 45q-12 33 -48 33q-24 0 -37 -20.5t-13 -47.5q0 -19 11.5 -29.5t30.5 -10.5z" />
    <glyph glyph-name="aacute" unicode="&#xe1;" horiz-adv-x="453" 
d="M463 700l-144 -144h-99l112 144h131zM377 0h-157l10 46q-18 -26 -48.5 -42t-62.5 -16q-51 0 -85 34.5t-34 92.5q0 80 45.5 134t113.5 54q35 0 67.5 -14.5t47.5 -40.5l9 40q3 10 3 24q0 24 -20 38.5t-50 14.5q-55 0 -102 -34l-31 113q63 51 175 51q83 0 138 -36t55 -103
q0 -20 -5 -44zM201 92q32 0 46 30l10 45q-12 33 -48 33q-24 0 -37 -20.5t-13 -47.5q0 -19 11.5 -29.5t30.5 -10.5z" />
    <glyph glyph-name="acircumflex" unicode="&#xe2;" horiz-adv-x="453" 
d="M430 556h-82l-30 79l-62 -79h-86l92 144h138zM377 0h-157l10 46q-18 -26 -48.5 -42t-62.5 -16q-51 0 -85 34.5t-34 92.5q0 80 45.5 134t113.5 54q35 0 67.5 -14.5t47.5 -40.5l9 40q3 10 3 24q0 24 -20 38.5t-50 14.5q-55 0 -102 -34l-31 113q63 51 175 51q83 0 138 -36
t55 -103q0 -20 -5 -44zM201 92q32 0 46 30l10 45q-12 33 -48 33q-24 0 -37 -20.5t-13 -47.5q0 -19 11.5 -29.5t30.5 -10.5z" />
    <glyph glyph-name="atilde" unicode="&#xe3;" horiz-adv-x="453" 
d="M352 554q-25 0 -39 13.5t-23.5 27t-23.5 13.5q-21 0 -31 -48h-80q30 134 116 134q20 0 34 -8.5t19 -18t14 -18t20 -8.5q19 0 31 47h80q-14 -62 -43.5 -98t-73.5 -36zM377 0h-157l10 46q-18 -26 -48.5 -42t-62.5 -16q-51 0 -85 34.5t-34 92.5q0 80 45.5 134t113.5 54
q35 0 67.5 -14.5t47.5 -40.5l9 40q3 10 3 24q0 24 -20 38.5t-50 14.5q-55 0 -102 -34l-31 113q63 51 175 51q83 0 138 -36t55 -103q0 -20 -5 -44zM201 92q32 0 46 30l10 45q-12 33 -48 33q-24 0 -37 -20.5t-13 -47.5q0 -19 11.5 -29.5t30.5 -10.5z" />
    <glyph glyph-name="adieresis" unicode="&#xe4;" horiz-adv-x="453" 
d="M485 624q0 -35 -28 -62t-63 -27q-30 0 -50 20.5t-20 50.5q0 35 27.5 62t62.5 27q30 0 50.5 -20.5t20.5 -50.5zM300 624q0 -35 -27.5 -62t-62.5 -27q-31 0 -51 20.5t-20 50.5q0 35 27.5 62t62.5 27q31 0 51 -20.5t20 -50.5zM377 0h-157l10 46q-18 -26 -48.5 -42t-62.5 -16
q-51 0 -85 34.5t-34 92.5q0 80 45.5 134t113.5 54q35 0 67.5 -14.5t47.5 -40.5l9 40q3 10 3 24q0 24 -20 38.5t-50 14.5q-55 0 -102 -34l-31 113q63 51 175 51q83 0 138 -36t55 -103q0 -20 -5 -44zM201 92q32 0 46 30l10 45q-12 33 -48 33q-24 0 -37 -20.5t-13 -47.5
q0 -19 11.5 -29.5t30.5 -10.5z" />
    <glyph glyph-name="aring" unicode="&#xe5;" horiz-adv-x="453" 
d="M302 543q-38 0 -61.5 23.5t-23.5 61.5q0 43 32 74.5t75 31.5q37 0 60.5 -24t23.5 -61q0 -43 -31.5 -74.5t-74.5 -31.5zM310 607q14 0 25 10.5t11 24.5q0 13 -8 21t-20 8q-14 0 -25 -11t-11 -25q0 -12 7.5 -20t20.5 -8zM377 0h-157l10 46q-18 -26 -48.5 -42t-62.5 -16
q-51 0 -85 34.5t-34 92.5q0 80 45.5 134t113.5 54q35 0 67.5 -14.5t47.5 -40.5l9 40q3 10 3 24q0 24 -20 38.5t-50 14.5q-55 0 -102 -34l-31 113q63 51 175 51q83 0 138 -36t55 -103q0 -20 -5 -44zM201 92q32 0 46 30l10 45q-12 33 -48 33q-24 0 -37 -20.5t-13 -47.5
q0 -19 11.5 -29.5t30.5 -10.5z" />
    <glyph glyph-name="ae" unicode="&#xe6;" horiz-adv-x="693" 
d="M665 190h-254q-1 -5 -1 -15q0 -24 21 -42t60 -18q40 0 80 31l48 -99q-71 -59 -161 -59q-104 0 -146 69q-76 -69 -178 -69q-58 0 -96 37.5t-38 97.5q0 78 44.5 129t113.5 51q35 0 68 -14.5t48 -40.5l8 40q3 9 3 22q0 25 -20 40t-50 15q-54 0 -102 -34l-30 113
q67 51 174 51q89 0 125 -61q65 61 139 61q76 0 120 -45.5t44 -134.5q0 -45 -20 -125zM254 129v15q0 13 2 23q-11 33 -47 33q-22 0 -36 -19.5t-14 -48.5q0 -40 41 -40q31 0 54 37zM434 297h108q3 11 3 23q0 22 -12.5 35t-33.5 13q-52 0 -65 -71z" />
    <glyph glyph-name="ccedilla" unicode="&#xe7;" horiz-adv-x="371" 
d="M145 -198q-63 0 -102 41l37 54q26 -33 64 -33q15 0 24.5 8.5t9.5 21.5q0 18 -18 18q-12 0 -21 -12l-47 30l40 68q-58 17 -90.5 65t-32.5 121q0 123 69.5 217t179.5 94q92 0 144 -50l-70 -118q-19 29 -59 29q-43 0 -73 -46.5t-30 -105.5q0 -38 19 -57.5t52 -19.5
q30 0 55 22l19 -125q-44 -36 -115 -36h-2l-24 -37q10 9 23 9q24 0 39.5 -16.5t15.5 -45.5q0 -42 -30 -69t-77 -27z" />
    <glyph glyph-name="egrave" unicode="&#xe8;" horiz-adv-x="435" 
d="M200 -12q-90 0 -140.5 52.5t-50.5 145.5q0 73 28 142t85.5 118t131.5 49q89 0 131 -49t42 -131q0 -48 -20 -125h-254q-1 -5 -1 -16t5.5 -23.5t25 -24.5t50.5 -12q38 0 80 31l48 -98q-30 -27 -74 -43t-87 -16zM283 297h2q2 16 2 24q0 22 -13 35t-33 13q-29 0 -45 -21.5
t-21 -50.5h108zM371 556h-97l-80 144h129z" />
    <glyph glyph-name="eacute" unicode="&#xe9;" horiz-adv-x="435" 
d="M200 -12q-90 0 -140.5 52.5t-50.5 145.5q0 73 28 142t85.5 118t131.5 49q89 0 131 -49t42 -131q0 -48 -20 -125h-254q-1 -5 -1 -16t5.5 -23.5t25 -24.5t50.5 -12q38 0 80 31l48 -98q-30 -27 -74 -43t-87 -16zM283 297h2q2 16 2 24q0 22 -13 35t-33 13q-29 0 -45 -21.5
t-21 -50.5h108zM462 700l-144 -144h-99l112 144h131z" />
    <glyph glyph-name="ecircumflex" unicode="&#xea;" horiz-adv-x="435" 
d="M200 -12q-90 0 -140.5 52.5t-50.5 145.5q0 73 28 142t85.5 118t131.5 49q89 0 131 -49t42 -131q0 -48 -20 -125h-254q-1 -5 -1 -16t5.5 -23.5t25 -24.5t50.5 -12q38 0 80 31l48 -98q-30 -27 -74 -43t-87 -16zM283 297h2q2 16 2 24q0 22 -13 35t-33 13q-29 0 -45 -21.5
t-21 -50.5h108zM421 556h-82l-30 79l-62 -79h-86l92 144h138z" />
    <glyph glyph-name="edieresis" unicode="&#xeb;" horiz-adv-x="435" 
d="M200 -12q-90 0 -140.5 52.5t-50.5 145.5q0 73 28 142t85.5 118t131.5 49q89 0 131 -49t42 -131q0 -48 -20 -125h-254q-1 -5 -1 -16t5.5 -23.5t25 -24.5t50.5 -12q38 0 80 31l48 -98q-30 -27 -74 -43t-87 -16zM283 297h2q2 16 2 24q0 22 -13 35t-33 13q-29 0 -45 -21.5
t-21 -50.5h108zM476 624q0 -35 -28 -62t-63 -27q-30 0 -50 20.5t-20 50.5q0 35 27.5 62t62.5 27q30 0 50.5 -20.5t20.5 -50.5zM291 624q0 -35 -27.5 -62t-62.5 -27q-31 0 -51 20.5t-20 50.5q0 35 27.5 62t62.5 27q31 0 51 -20.5t20 -50.5z" />
    <glyph glyph-name="igrave" unicode="&#xec;" horiz-adv-x="228" 
d="M259 556h-97l-80 144h129zM139 0h-158l107 483h158z" />
    <glyph glyph-name="iacute" unicode="&#xed;" horiz-adv-x="228" 
d="M348 700l-144 -144h-99l112 144h131zM139 0h-158l107 483h158z" />
    <glyph glyph-name="icircumflex" unicode="&#xee;" horiz-adv-x="228" 
d="M314 556h-82l-30 79l-62 -79h-86l92 144h138zM139 0h-158l107 483h158z" />
    <glyph glyph-name="idieresis" unicode="&#xef;" horiz-adv-x="228" 
d="M369 624q0 -35 -28 -62t-63 -27q-30 0 -50 20.5t-20 50.5q0 35 27.5 62t62.5 27q30 0 50.5 -20.5t20.5 -50.5zM184 624q0 -35 -27.5 -62t-62.5 -27q-31 0 -51 20.5t-20 50.5q0 35 27.5 62t62.5 27q31 0 51 -20.5t20 -50.5zM139 0h-158l107 483h158z" />
    <glyph glyph-name="eth" unicode="&#xf0;" horiz-adv-x="451" 
d="M207 484l-17 71l100 29q-7 46 -22 84l152 47q18 -55 25 -85l62 18l15 -70l-65 -20q6 -54 6 -116q0 -78 -14 -153.5t-43.5 -145t-83 -112.5t-123.5 -43q-94 0 -143 51t-49 134q0 62 22.5 124t70.5 107.5t108 45.5q43 0 67.5 -24t32.5 -62q-2 98 -8 148zM204 127
q31 0 50.5 43t19.5 88q0 53 -40 53q-31 0 -49.5 -45.5t-18.5 -87.5q0 -51 38 -51z" />
    <glyph glyph-name="ntilde" unicode="&#xf1;" 
d="M373 0h-158l70 316q0 1 1 7t1 8q0 25 -23 25q-29 0 -57 -47l-68 -309h-158l107 483h158l-14 -57q23 29 57 49t70 20q47 0 74 -24.5t27 -64.5q0 -2 -4 -26zM356 554q-25 0 -39 13.5t-23.5 27t-23.5 13.5q-21 0 -31 -48h-80q30 134 116 134q20 0 34 -8.5t19 -18t14 -18
t20 -8.5q19 0 31 47h80q-14 -62 -43.5 -98t-73.5 -36z" />
    <glyph glyph-name="ograve" unicode="&#xf2;" horiz-adv-x="451" 
d="M196 -12q-92 0 -139.5 53t-47.5 144q0 73 27.5 142.5t85 118.5t131.5 49q92 0 140 -53t48 -144q0 -53 -17 -107.5t-47 -100t-77.5 -74t-103.5 -28.5zM205 127q35 0 56 63.5t21 111.5q0 54 -37 54q-35 0 -56 -64t-21 -111q0 -54 37 -54zM371 556h-97l-80 144h129z" />
    <glyph glyph-name="oacute" unicode="&#xf3;" horiz-adv-x="451" 
d="M196 -12q-92 0 -139.5 53t-47.5 144q0 73 27.5 142.5t85 118.5t131.5 49q92 0 140 -53t48 -144q0 -53 -17 -107.5t-47 -100t-77.5 -74t-103.5 -28.5zM205 127q35 0 56 63.5t21 111.5q0 54 -37 54q-35 0 -56 -64t-21 -111q0 -54 37 -54zM461 700l-144 -144h-99l112 144
h131z" />
    <glyph glyph-name="ocircumflex" unicode="&#xf4;" horiz-adv-x="451" 
d="M196 -12q-92 0 -139.5 53t-47.5 144q0 73 27.5 142.5t85 118.5t131.5 49q92 0 140 -53t48 -144q0 -53 -17 -107.5t-47 -100t-77.5 -74t-103.5 -28.5zM205 127q35 0 56 63.5t21 111.5q0 54 -37 54q-35 0 -56 -64t-21 -111q0 -54 37 -54zM426 556h-82l-30 79l-62 -79h-86
l92 144h138z" />
    <glyph glyph-name="otilde" unicode="&#xf5;" horiz-adv-x="451" 
d="M196 -12q-92 0 -139.5 53t-47.5 144q0 73 27.5 142.5t85 118.5t131.5 49q92 0 140 -53t48 -144q0 -53 -17 -107.5t-47 -100t-77.5 -74t-103.5 -28.5zM205 127q35 0 56 63.5t21 111.5q0 54 -37 54q-35 0 -56 -64t-21 -111q0 -54 37 -54zM350 554q-25 0 -39 13.5t-23.5 27
t-23.5 13.5q-21 0 -31 -48h-80q30 134 116 134q20 0 34 -8.5t19 -18t14 -18t20 -8.5q19 0 31 47h80q-14 -62 -43.5 -98t-73.5 -36z" />
    <glyph glyph-name="odieresis" unicode="&#xf6;" horiz-adv-x="451" 
d="M196 -12q-92 0 -139.5 53t-47.5 144q0 73 27.5 142.5t85 118.5t131.5 49q92 0 140 -53t48 -144q0 -53 -17 -107.5t-47 -100t-77.5 -74t-103.5 -28.5zM205 127q35 0 56 63.5t21 111.5q0 54 -37 54q-35 0 -56 -64t-21 -111q0 -54 37 -54zM481 624q0 -35 -28 -62t-63 -27
q-30 0 -50 20.5t-20 50.5q0 35 27.5 62t62.5 27q30 0 50.5 -20.5t20.5 -50.5zM296 624q0 -35 -27.5 -62t-62.5 -27q-31 0 -51 20.5t-20 50.5q0 35 27.5 62t62.5 27q31 0 51 -20.5t20 -50.5z" />
    <glyph glyph-name="divide" unicode="&#xf7;" horiz-adv-x="374" 
d="M355 291h-316l21 93h316zM168 120q-26 0 -44.5 18.5t-18.5 44.5q0 31 22.5 53.5t53.5 22.5q26 0 44.5 -19t18.5 -45q0 -30 -23 -52.5t-53 -22.5zM234 415q-26 0 -45 18.5t-19 44.5q0 31 22.5 53.5t53.5 22.5q26 0 45 -19t19 -45q0 -30 -23 -52.5t-53 -22.5z" />
    <glyph glyph-name="oslash" unicode="&#xf8;" horiz-adv-x="451" 
d="M51 0h-86l68 75q-24 45 -24 110q0 73 27.5 142.5t85 118.5t131.5 49q76 0 123 -38l24 26h85l-68 -76q24 -45 24 -109q0 -53 -17 -107.5t-47 -100t-77.5 -74t-103.5 -28.5q-77 0 -123 37zM245 356q-26 0 -44.5 -37.5t-27.5 -87.5l100 111q-8 14 -28 14zM205 127
q48 0 71 124l-100 -112q8 -12 29 -12z" />
    <glyph glyph-name="ugrave" unicode="&#xf9;" 
d="M88 483h158l-70 -316q0 -2 -1 -5q-2 -8 -2 -10q0 -25 24 -25q30 0 56 46l69 310h158l-107 -483h-158l13 57q-22 -28 -56 -48.5t-70 -20.5q-47 0 -74 24.5t-27 64.5q0 2 4 26zM376 556h-97l-80 144h129z" />
    <glyph glyph-name="uacute" unicode="&#xfa;" 
d="M88 483h158l-70 -316q0 -2 -1 -5q-2 -8 -2 -10q0 -25 24 -25q30 0 56 46l69 310h158l-107 -483h-158l13 57q-22 -28 -56 -48.5t-70 -20.5q-47 0 -74 24.5t-27 64.5q0 2 4 26zM466 700l-144 -144h-99l112 144h131z" />
    <glyph glyph-name="ucircumflex" unicode="&#xfb;" 
d="M88 483h158l-70 -316q0 -2 -1 -5q-2 -8 -2 -10q0 -25 24 -25q30 0 56 46l69 310h158l-107 -483h-158l13 57q-22 -28 -56 -48.5t-70 -20.5q-47 0 -74 24.5t-27 64.5q0 2 4 26zM431 556h-82l-30 79l-62 -79h-86l92 144h138z" />
    <glyph glyph-name="udieresis" unicode="&#xfc;" 
d="M88 483h158l-70 -316q0 -2 -1 -5q-2 -8 -2 -10q0 -25 24 -25q30 0 56 46l69 310h158l-107 -483h-158l13 57q-22 -28 -56 -48.5t-70 -20.5q-47 0 -74 24.5t-27 64.5q0 2 4 26zM487 624q0 -35 -28 -62t-63 -27q-30 0 -50 20.5t-20 50.5q0 35 27.5 62t62.5 27
q30 0 50.5 -20.5t20.5 -50.5zM302 624q0 -35 -27.5 -62t-62.5 -27q-31 0 -51 20.5t-20 50.5q0 35 27.5 62t62.5 27q31 0 51 -20.5t20 -50.5z" />
    <glyph glyph-name="yacute" unicode="&#xfd;" 
d="M466 700l-144 -144h-99l112 144h131zM141 -196q-61 0 -109.5 18t-71.5 48l76 115q37 -48 99 -48q36 0 56 23.5t31 71.5l11 49q-21 -27 -56.5 -47t-69.5 -20q-46 0 -73.5 24.5t-27.5 65.5q0 10 4 24l78 355h158l-65 -290q-2 -14 -2 -16q0 -24 24 -24q32 0 56 48l63 282
h158l-101 -451q-50 -228 -238 -228z" />
    <glyph glyph-name="thorn" unicode="&#xfe;" 
d="M254 -12q-82 0 -103 67l-53 -239h-157l187 851h158l-53 -237q46 65 105 65q116 0 116 -165q0 -52 -12.5 -109.5t-36 -110.5t-63.5 -87.5t-88 -34.5zM213 127q20 0 36 20.5t25 50.5t13.5 58.5t4.5 49.5q0 50 -40 50q-25 0 -42 -33l-36 -162q8 -34 39 -34z" />
    <glyph glyph-name="ydieresis" unicode="&#xff;" 
d="M487 624q0 -35 -28 -62t-63 -27q-30 0 -50 20.5t-20 50.5q0 35 27.5 62t62.5 27q30 0 50.5 -20.5t20.5 -50.5zM302 624q0 -35 -27.5 -62t-62.5 -27q-31 0 -51 20.5t-20 50.5q0 35 27.5 62t62.5 27q31 0 51 -20.5t20 -50.5zM141 -196q-61 0 -109.5 18t-71.5 48l76 115
q37 -48 99 -48q36 0 56 23.5t31 71.5l11 49q-21 -27 -56.5 -47t-69.5 -20q-46 0 -73.5 24.5t-27.5 65.5q0 10 4 24l78 355h158l-65 -290q-2 -14 -2 -16q0 -24 24 -24q32 0 56 48l63 282h158l-101 -451q-50 -228 -238 -228z" />
    <glyph glyph-name="dotlessi" unicode="&#x131;" horiz-adv-x="228" 
d="M139 0h-158l107 483h158z" />
    <glyph glyph-name="Lslash" unicode="&#x141;" horiz-adv-x="402" 
d="M-1 190l31 142l41 21l69 314h177l-47 -212l64 33l-31 -142l-64 -33l-35 -159h159l-34 -154h-336l46 211z" />
    <glyph glyph-name="lslash" unicode="&#x142;" horiz-adv-x="281" 
d="M2 207l25 112l45 22l72 326h158l-52 -235l47 24l-25 -112l-47 -24l-33 -150q-2 -10 -2 -20q1 -23 23 -23q10 0 18 6l-5 -133q-19 -12 -64 -12q-141 0 -141 100q0 26 6 51l20 91z" />
    <glyph glyph-name="OE" unicode="&#x152;" horiz-adv-x="671" 
d="M599 0h-336l7 34q-18 -24 -45.5 -35t-50.5 -11q-69 0 -112 61.5t-43 173.5q0 71 20 148.5t56 146.5t95 114t128 45q26 0 51 -12t34 -32l7 34h336l-35 -154h-159l-21 -98h152l-34 -154h-152l-24 -107h160zM307 204l58 259q-4 58 -43 58q-37 0 -67 -59t-43.5 -126.5
t-13.5 -116.5q0 -75 41 -75q40 0 68 60z" />
    <glyph glyph-name="oe" unicode="&#x153;" horiz-adv-x="693" 
d="M666 190h-250q-1 -3 -1 -15q0 -23 17.5 -41.5t59.5 -18.5q43 0 80 31l48 -99q-65 -59 -159 -59t-131 67q-61 -67 -136 -67q-92 0 -138.5 53.5t-46.5 143.5q0 76 28 145.5t84.5 117t129.5 47.5q87 0 131 -66q52 66 133 66q80 0 125.5 -44t45.5 -136q0 -43 -20 -125z
M438 297h106q2 12 2 24q0 47 -43 47q-54 0 -65 -71zM278 302q0 54 -37 54q-34 0 -53.5 -60.5t-19.5 -114.5t37 -54q34 0 53.5 62.5t19.5 112.5z" />
    <glyph glyph-name="Scaron" unicode="&#x160;" horiz-adv-x="435" 
d="M420 728h-138l-31 144h82l30 -79l62 79h86zM179 -12q-65 0 -121 23t-86 61l97 130q19 -26 49 -42t60 -16q22 0 36 14t14 36q0 20 -25.5 44.5t-56 47t-56 63.5t-25.5 91q0 99 68 168.5t169 69.5q52 0 102 -19t82 -54l-91 -131q-37 48 -95 48q-23 0 -35 -13.5t-12 -32.5
q0 -18 16.5 -37t40 -38t47 -41.5t40 -56.5t16.5 -74q0 -99 -65.5 -170t-168.5 -71z" />
    <glyph glyph-name="scaron" unicode="&#x161;" horiz-adv-x="382" 
d="M156 -12q-61 0 -113.5 23.5t-73.5 52.5l82 101q42 -54 104 -54q20 0 32 8.5t12 21.5t-25 28t-55 28.5t-55 45t-25 74.5q0 74 49.5 126t138.5 52q49 0 96 -19t79 -53l-78 -100q-12 16 -40.5 32.5t-56.5 16.5q-38 0 -38 -27q0 -11 26 -25t57 -28t57 -46.5t26 -76.5
q0 -73 -54.5 -127t-144.5 -54zM336 556h-138l-31 144h82l30 -79l62 79h86z" />
    <glyph glyph-name="Ydieresis" unicode="&#x178;" horiz-adv-x="489" 
d="M539 799q0 -35 -28 -62t-63 -27q-30 0 -50 20.5t-20 50.5q0 35 27.5 62t62.5 27q30 0 50.5 -20.5t20.5 -50.5zM354 799q0 -35 -27.5 -62t-62.5 -27q-31 0 -51 20.5t-20 50.5q0 35 27.5 62t62.5 27q31 0 51 -20.5t20 -50.5zM279 0h-177l59 269l-75 398h179l14 -232
l117 232h193l-252 -398z" />
    <glyph glyph-name="Zcaron" unicode="&#x17d;" horiz-adv-x="412" 
d="M384 728h-138l-31 144h82l30 -79l62 79h86zM332 0h-360l32 147l225 366h-144l34 154h353l-31 -140l-230 -373h155z" />
    <glyph glyph-name="zcaron" unicode="&#x17e;" horiz-adv-x="368" 
d="M295 0h-330l25 116l182 230h-131l31 137h326l-25 -111l-185 -235h136zM321 556h-138l-31 144h82l30 -79l62 79h86z" />
    <glyph glyph-name="florin" unicode="&#x192;" horiz-adv-x="431" 
d="M130 -161h-180l86 391h-37v137h68l34 158q16 71 60.5 111.5t112.5 40.5q73 0 113 -25l-42 -139q-11 10 -30 10q-33 0 -43 -46l-24 -110h67v-137h-98z" />
    <glyph glyph-name="circumflex" unicode="&#x2c6;" horiz-adv-x="260" 
d="M329 556h-82l-30 79l-62 -79h-86l92 144h138z" />
    <glyph glyph-name="caron" unicode="&#x2c7;" horiz-adv-x="260" 
d="M270 556h-138l-31 144h82l30 -79l62 79h86z" />
    <glyph glyph-name="breve" unicode="&#x2d8;" horiz-adv-x="258" 
d="M341 617q-63 -65 -143 -65t-116 65l79 52q13 -30 52 -30q38 0 66 30z" />
    <glyph glyph-name="dotaccent" unicode="&#x2d9;" horiz-adv-x="210" 
d="M269 627q0 -35 -27.5 -62t-62.5 -27q-31 0 -51 20.5t-20 50.5q0 35 27.5 62t62.5 27q31 0 51 -20t20 -51z" />
    <glyph glyph-name="ring" unicode="&#x2da;" horiz-adv-x="188" 
d="M170 543q-38 0 -61.5 23.5t-23.5 61.5q0 43 32 74.5t75 31.5q37 0 60.5 -24t23.5 -61q0 -43 -31.5 -74.5t-74.5 -31.5zM178 607q14 0 25 10.5t11 24.5q0 13 -8 21t-20 8q-14 0 -25 -11t-11 -25q0 -12 7.5 -20t20.5 -8z" />
    <glyph glyph-name="ogonek" unicode="&#x2db;" horiz-adv-x="172" 
d="M37 -102l51 -37q-33 -47 -81 -47q-37 0 -61 18t-24 53q0 79 99 149l47 -34q-73 -49 -73 -107q0 -17 17 -17q16 0 25 22z" />
    <glyph glyph-name="tilde" unicode="&#x2dc;" horiz-adv-x="286" 
d="M267 554q-25 0 -39 13.5t-23.5 27t-23.5 13.5q-21 0 -31 -48h-80q30 134 116 134q20 0 34 -8.5t19 -18t14 -18t20 -8.5q19 0 31 47h80q-14 -62 -43.5 -98t-73.5 -36z" />
    <glyph glyph-name="hungarumlaut" unicode="&#x2dd;" horiz-adv-x="303" 
d="M264 700l-115 -144h-82l83 144h114zM404 700l-115 -144h-82l83 144h114z" />
    <glyph glyph-name="pi" unicode="&#x3c0;" horiz-adv-x="509" 
d="M401 0h-157l80 362h-87l-80 -362h-158l80 362h-35l30 138h473l-30 -138h-35z" />
    <glyph glyph-name="endash" unicode="&#x2013;" horiz-adv-x="460" 
d="M415 176h-400l29 132h400z" />
    <glyph glyph-name="emdash" unicode="&#x2014;" horiz-adv-x="640" 
d="M595 176h-580l29 132h580z" />
    <glyph glyph-name="quoteleft" unicode="&#x2018;" horiz-adv-x="273" 
d="M80 456q0 63 47 125.5t118 96.5l54 -56q-32 -13 -63 -36t-43 -48q3 1 12 1q30 0 51 -20t21 -56q0 -41 -32 -71.5t-73 -30.5q-38 0 -65 25.5t-27 69.5z" />
    <glyph glyph-name="quoteright" unicode="&#x2019;" horiz-adv-x="273" 
d="M310 582q0 -63 -46 -125t-118 -97l-54 56q81 35 106 84q-3 -1 -12 -1q-31 0 -52 20t-21 57q0 40 32.5 70.5t73.5 30.5q38 0 64.5 -25.5t26.5 -69.5z" />
    <glyph glyph-name="quotesinglbase" unicode="&#x201a;" horiz-adv-x="273" 
d="M200 85q0 -63 -46 -125t-118 -97l-54 56q81 35 106 84q-3 -1 -12 -1q-31 0 -52 20t-21 57q0 41 32.5 71t73.5 30q38 0 64.5 -25t26.5 -70z" />
    <glyph glyph-name="quotedblleft" unicode="&#x201c;" horiz-adv-x="502" 
d="M312 456q0 63 46.5 125.5t117.5 96.5l54 -56q-81 -35 -106 -84q3 1 12 1q31 0 52 -20t21 -56q0 -41 -32.5 -71.5t-73.5 -30.5q-38 0 -64.5 25.5t-26.5 69.5zM84 456q0 63 46.5 125.5t117.5 96.5l54 -56q-81 -35 -106 -84q3 1 12 1q31 0 52 -20t21 -56q0 -41 -32.5 -71.5
t-73.5 -30.5q-38 0 -64.5 25.5t-26.5 69.5z" />
    <glyph glyph-name="quotedblright" unicode="&#x201d;" horiz-adv-x="502" 
d="M310 582q0 -63 -46 -125t-118 -97l-54 56q81 35 106 84q-3 -1 -12 -1q-31 0 -52 20t-21 57q0 40 32.5 70.5t73.5 30.5q38 0 64.5 -25.5t26.5 -69.5zM538 582q0 -63 -46 -125t-118 -97l-54 56q81 35 106 84q-3 -1 -12 -1q-31 0 -52 20t-21 57q0 40 32.5 70.5t73.5 30.5
q38 0 64.5 -25.5t26.5 -69.5z" />
    <glyph glyph-name="quotedblbase" unicode="&#x201e;" horiz-adv-x="502" 
d="M200 85q0 -63 -46 -125t-118 -97l-54 56q81 35 106 84q-3 -1 -12 -1q-31 0 -52 20t-21 57q0 41 32.5 71t73.5 30q38 0 64.5 -25t26.5 -70zM428 85q0 -63 -46 -125t-118 -97l-54 56q81 35 106 84q-2 -1 -12 -1q-31 0 -52 20t-21 57q0 41 32.5 71t73.5 30q38 0 64.5 -25
t26.5 -70z" />
    <glyph glyph-name="dagger" unicode="&#x2020;" horiz-adv-x="285" 
d="M327 517l-88 4l-39 -194h-80l48 194l-90 -4l16 73l89 -3l15 90h80l-24 -90l89 3z" />
    <glyph glyph-name="daggerdbl" unicode="&#x2021;" horiz-adv-x="285" 
d="M343 590l-16 -73l-88 4l-41 -183l90 4l-16 -73l-88 3l-17 -92h-80l25 92l-89 -3l16 73l87 -4l41 183l-89 -4l16 73l88 -3l16 90h80l-24 -90z" />
    <glyph glyph-name="bullet" unicode="&#x2022;" horiz-adv-x="358" 
d="M305 255q0 -56 -41.5 -96.5t-98.5 -40.5q-48 0 -80 32t-32 80q0 56 41.5 96.5t98.5 40.5q48 0 80 -32t32 -80z" />
    <glyph glyph-name="ellipsis" unicode="&#x2026;" horiz-adv-x="810" 
d="M90 -12q-36 0 -61.5 25.5t-25.5 61.5q0 43 31.5 74t73.5 31q37 0 62 -26t25 -63q0 -42 -31 -72.5t-74 -30.5zM360 -12q-36 0 -61.5 25.5t-25.5 61.5q0 43 31.5 74t73.5 31q37 0 62 -26t25 -63q0 -42 -31 -72.5t-74 -30.5zM630 -12q-36 0 -61.5 25.5t-25.5 61.5
q0 43 31.5 74t73.5 31q37 0 62 -26t25 -63q0 -42 -31 -72.5t-74 -30.5z" />
    <glyph glyph-name="perthousand" unicode="&#x2030;" horiz-adv-x="894" 
d="M136 0h-60l431 667h61zM414 -12q-57 0 -90 36t-33 92q0 86 48.5 146.5t113.5 60.5q56 0 89.5 -36.5t33.5 -92.5q0 -86 -48.5 -146t-113.5 -60zM422 82q18 0 36.5 32t18.5 71q0 43 -32 43q-19 0 -37 -31.5t-18 -70.5q0 -44 32 -44zM189 343q-56 0 -89.5 36t-33.5 92
q0 86 48.5 146t114.5 60q56 0 89.5 -36t33.5 -92q0 -86 -48.5 -146t-114.5 -60zM197 437q19 0 37 31.5t18 70.5q0 44 -31 44q-19 0 -37 -31.5t-18 -71.5q0 -43 31 -43zM703 -12q-57 0 -90 36t-33 92q0 86 48.5 146.5t113.5 60.5q56 0 89.5 -36.5t33.5 -92.5
q0 -86 -48.5 -146t-113.5 -60zM711 82q19 0 37 31.5t18 71.5q0 43 -31 43q-19 0 -37.5 -31.5t-18.5 -70.5q0 -44 32 -44z" />
    <glyph glyph-name="guilsinglleft" unicode="&#x2039;" horiz-adv-x="267" 
d="M194 63h-115l-50 180l130 177h119l-133 -181z" />
    <glyph glyph-name="guilsinglright" unicode="&#x203a;" horiz-adv-x="267" 
d="M73 420h115l50 -180l-130 -177h-119l133 181z" />
    <glyph glyph-name="fraction" unicode="&#x2044;" horiz-adv-x="151" 
d="M341 667l-432 -667h-60l431 667h61z" />
    <glyph glyph-name="Euro" unicode="&#x20ac;" horiz-adv-x="488" 
d="M251 -12q-101 0 -155 62t-55 168h-34l21 94h20q1 8 8 45h-19l22 94h25q38 100 104.5 163.5t161.5 63.5q53 0 92.5 -20.5t60.5 -54.5t31 -72t10 -80l-162 -32q-2 49 -10.5 76t-31.5 27q-37 0 -70 -71h80l-21 -94h-90l-3 -14.5l-3.5 -17t-2.5 -13.5h89l-21 -94h-78
q0 -74 39 -74t73 78l142 -56q-76 -178 -223 -178z" />
    <glyph glyph-name="trademark" unicode="&#x2122;" horiz-adv-x="374" 
d="M384 447h-28l40 182l-95 -182h-8l-15 182l-40 -182h-28l48 220h43l10 -157l78 157h43zM217 641h-42l-43 -194h-28l43 194h-42l5 26h112z" />
    <glyph glyph-name="Omega" unicode="&#x2126;" horiz-adv-x="519" 
d="M-26 0l34 154h95q-66 68 -66 170q0 82 34 162.5t100.5 136t146.5 55.5q97 0 161 -54.5t64 -160.5q0 -101 -45 -180t-117 -129h90l-34 -154h-207l21 94h-1l14 60q39 32 66 135.5t27 154.5q0 38 -9 57.5t-33 19.5q-45 0 -80 -102t-35 -197q0 -49 15 -68l-13 -60l-21 -94
h-207z" />
    <glyph glyph-name="partialdiff" unicode="&#x2202;" horiz-adv-x="451" 
d="M199 -12q-94 0 -143 51t-49 134q0 62 22.5 124t70.5 107.5t108 45.5q43 0 67.5 -24t32.5 -62q-2 211 -40 304l152 47q43 -121 43 -273q0 -78 -14 -153.5t-43.5 -145t-83 -112.5t-123.5 -43zM204 127q31 0 50.5 43t19.5 88q0 53 -40 53q-31 0 -49.5 -45.5t-18.5 -87.5
q0 -51 38 -51z" />
    <glyph glyph-name="Delta" unicode="&#x2206;" horiz-adv-x="484" 
d="M436 0h-496l293 667h203v-667zM274 154l22 322l-117 -322h95z" />
    <glyph glyph-name="product" unicode="&#x220f;" horiz-adv-x="606" 
d="M466 -90h-176l133 603h-121l-133 -603h-177l133 603h-48l34 154h570l-34 -154h-48z" />
    <glyph glyph-name="summation" unicode="&#x2211;" horiz-adv-x="399" 
d="M269 513l60 -222l-161 -227h166l-34 -154h-346l34 161l161 227l-62 215l34 154h346l-34 -154h-164z" />
    <glyph glyph-name="minus" unicode="&#x2212;" horiz-adv-x="388" 
d="M368 288h-330l21 93h329z" />
    <glyph glyph-name="radical" unicode="&#x221a;" horiz-adv-x="466" 
d="M234 0h-99l1 287l-77 -14l4 92l167 30l-10 -239l223 511h98z" />
    <glyph glyph-name="infinity" unicode="&#x221e;" horiz-adv-x="509" 
d="M140 152q-49 0 -73.5 34.5t-24.5 93.5q0 86 43 163t113 77q39 0 64.5 -27t31.5 -70q24 47 50 71.5t64 24.5q49 0 73.5 -34.5t24.5 -93.5q0 -86 -43 -162.5t-113 -76.5q-40 0 -65 26.5t-32 68.5q-24 -46 -50 -70.5t-63 -24.5zM347 245q28 0 48.5 41t20.5 84q0 57 -33 57
q-31 0 -70 -96q2 -86 34 -86zM166 245q33 0 70 95q0 87 -33 87q-28 0 -48.5 -41t-20.5 -84q0 -27 9 -42t23 -15z" />
    <glyph glyph-name="integral" unicode="&#x222b;" horiz-adv-x="254" 
d="M-34 -100h-25l21 101h26q29 0 36 30l134 605q29 132 169 132h26l-23 -101h-26q-28 0 -35 -31l-134 -605q-29 -131 -169 -131z" />
    <glyph glyph-name="approxequal" unicode="&#x2248;" horiz-adv-x="388" 
d="M18 195l22 97q31 -20 77 -20q34 0 83 18t90 18q47 0 79 -16l-21 -98q-33 20 -78 20q-34 0 -83 -18t-91 -18q-46 0 -78 17zM58 376l21 98q35 -21 79 -21q33 0 82 18t91 18q47 0 78 -15l-22 -98q-31 20 -77 20q-34 0 -83 -18.5t-90 -18.5q-47 0 -79 17z" />
    <glyph glyph-name="notequal" unicode="&#x2260;" horiz-adv-x="388" 
d="M89 93h-64l66 102h-73l21 93h112l60 92h-152l20 94h193l65 100h64l-65 -100h73l-21 -94h-113l-60 -92h153l-20 -93h-193z" />
    <glyph glyph-name="lessequal" unicode="&#x2264;" horiz-adv-x="388" 
d="M337 150l-301 128l25 114l358 128l-25 -116l-240 -75l207 -72zM307 9h-330l20 94h330z" />
    <glyph glyph-name="greaterequal" unicode="&#x2265;" horiz-adv-x="388" 
d="M365 278l-357 -128l26 116l239 73l-207 74l23 107l302 -128zM307 9h-330l20 94h330z" />
    <glyph glyph-name="lozenge" unicode="&#x25ca;" horiz-adv-x="375" 
d="M144 0h-21l-84 334l231 333h21l85 -333zM142 45l197 293l-67 284l-196 -292z" />
    <glyph glyph-name="apple" unicode="&#xf8ff;" horiz-adv-x="667" 
d="M193 153l14 62h-68q-27 0 -48.5 -20.5t-21.5 -47.5q0 -23 15 -39t38 -16q56 0 71 61zM260 452l11 52q2 10 2 17q0 24 -15 39t-39 15q-30 0 -50 -19t-20 -48q0 -26 16.5 -41t43.5 -15h51zM269 265h137l31 137h-137zM556 159q0 26 -16.5 41t-43.5 15h-50l-12 -52
q-2 -10 -2 -17q0 -24 15 -39t39 -15q30 0 50 19t20 48zM636 520q0 23 -15 39t-38 16q-27 0 -46 -16.5t-25 -44.5l-14 -62h68q27 0 48.5 21t21.5 47zM606 160q0 -48 -38.5 -83t-88.5 -35q-42 0 -70 28t-28 70q0 14 3 29l11 46h-137l-16 -70q-11 -46 -45 -74.5t-80 -28.5
q-41 0 -70 28t-29 69q0 50 38 88t87 38h75l31 137h-50q-45 0 -72.5 29.5t-27.5 75.5q0 48 38.5 83t88.5 35q42 0 70 -28t28 -70q0 -14 -3 -29l-11 -46h137l16 70q11 46 45 74.5t80 28.5q42 0 71 -28t29 -69q0 -50 -38 -88t-87 -38h-75l-31 -137h47q45 0 73.5 -29.5
t28.5 -75.5z" />
    </font>
</defs>
</svg>
